<?xml version="1.0" encoding="utf-8"?>
<!-- Generator: Adobe Illustrator 19.0.0, SVG Export Plug-In . SVG Version: 6.00 Build 0)  -->
<svg version="1.1" id="Layer_1" xmlns="http://www.w3.org/2000/svg" xmlns:xlink="http://www.w3.org/1999/xlink" x="0px" y="0px"
	 viewBox="0 0 533.8 501.1" style="enable-background:new 0 0 533.8 501.1;" xml:space="preserve">
<style type="text/css">
	.st0{opacity:0.85;fill:#6CB344;}
	.st1{opacity:0.65;fill:#6CB344;}
	.st2{opacity:0.75;fill:#6CB344;}
	.st3{fill:none;stroke:#000000;stroke-width:2;stroke-miterlimit:10;}
	.st4{fill:#6CB344;stroke:#000000;stroke-width:2;stroke-miterlimit:10;}
	.st5{fill:#010101;}
	.st6{fill:#FFFFFF;}
	.st7{fill:#FFFFFF;stroke:#010101;stroke-width:2;stroke-miterlimit:10;}
	.st8{fill:none;stroke:#010101;stroke-width:2;stroke-miterlimit:10;}
</style>
<rect id="XMLID_74_" x="273.9" y="38" class="st0" width="253" height="206.1"/>
<rect id="XMLID_69_" x="6.9" y="454.3" class="st1" width="520" height="40"/>
<rect id="XMLID_33_" x="6.9" y="312.7" class="st2" width="520" height="127"/>
<rect id="XMLID_68_" x="6.9" y="312.7" class="st3" width="520" height="127"/>
<rect id="XMLID_35_" x="6.9" y="38" class="st4" width="253" height="206.1"/>
<g id="XMLID_478_">
	<path id="XMLID_479_" class="st5" d="M165,11.5c-0.3,0.2-0.4,0.5-0.4,0.9c0,0.4,0.2,0.7,0.5,0.9c0.3,0.2,1.1,0.5,2.3,0.8
		c1.2,0.3,2.1,0.7,2.8,1.3c0.7,0.6,1,1.4,1,2.6s-0.4,2-1.3,2.7c-0.8,0.7-2,1.1-3.3,1.1c-2,0-3.8-0.7-5.4-2.2l1.7-2.1
		c1.4,1.2,2.6,1.8,3.8,1.8c0.5,0,0.9-0.1,1.2-0.3s0.4-0.5,0.4-0.9s-0.2-0.7-0.5-0.9c-0.3-0.2-0.9-0.4-1.9-0.7
		c-1.5-0.3-2.5-0.8-3.2-1.4c-0.7-0.6-1-1.4-1-2.6s0.4-2.1,1.3-2.8c0.9-0.6,1.9-1,3.2-1c0.8,0,1.7,0.1,2.5,0.4
		c0.8,0.3,1.6,0.7,2.2,1.2l-1.4,2.1c-1.1-0.8-2.2-1.2-3.4-1.2C165.6,11.1,165.3,11.2,165,11.5z"/>
	<path id="XMLID_481_" class="st5" d="M178.9,11.7c1.1,0,2.1,0.5,3,1.4c0.9,0.9,1.3,2.1,1.3,3.6s-0.4,2.6-1.3,3.6
		c-0.9,1-1.9,1.4-3.1,1.4c-1.2,0-2.1-0.5-2.9-1.4V25h-2.7V11.8h2.7v1.1C176.8,12.1,177.8,11.7,178.9,11.7z M175.9,16.7
		c0,0.8,0.2,1.4,0.7,1.9c0.4,0.5,1,0.7,1.6,0.7s1.2-0.2,1.6-0.7c0.5-0.5,0.7-1.1,0.7-1.9c0-0.8-0.2-1.4-0.7-2
		c-0.5-0.5-1-0.8-1.6-0.8c-0.6,0-1.2,0.3-1.6,0.8C176.2,15.3,175.9,15.9,175.9,16.7z"/>
	<path id="XMLID_484_" class="st5" d="M190.4,14.2c-0.8,0-1.4,0.3-1.8,0.9c-0.4,0.6-0.6,1.3-0.6,2.3v4.2h-2.7v-9.7h2.7v1.3
		c0.3-0.4,0.8-0.7,1.3-1c0.5-0.3,1.1-0.4,1.6-0.4l0,2.5H190.4z"/>
	<path id="XMLID_486_" class="st5" d="M192.9,10.6c-0.3-0.3-0.5-0.7-0.5-1.1c0-0.4,0.2-0.8,0.5-1.1s0.7-0.5,1.1-0.5s0.8,0.2,1.1,0.5
		s0.5,0.7,0.5,1.1c0,0.4-0.2,0.8-0.5,1.1s-0.7,0.5-1.1,0.5S193.2,10.9,192.9,10.6z M195.4,21.5h-2.7v-9.7h2.7V21.5z"/>
	<path id="XMLID_489_" class="st5" d="M200.6,16.1v5.4h-2.7v-9.7h2.7v1.1c0.8-0.8,1.7-1.2,2.8-1.2s1.9,0.4,2.6,1.1
		c0.7,0.7,1,1.7,1,2.9v5.9h-2.7v-5.5c0-1.5-0.5-2.2-1.6-2.2c-0.5,0-1,0.2-1.4,0.6C200.8,14.8,200.6,15.4,200.6,16.1z"/>
	<path id="XMLID_491_" class="st5" d="M216.6,19.9c-0.9,0.9-1.9,1.4-3.2,1.4c-1.3,0-2.3-0.4-3.2-1.3c-0.9-0.9-1.3-2-1.3-3.4
		c0-1.4,0.4-2.6,1.3-3.5c0.9-0.9,1.9-1.4,3.1-1.4s2.1,0.5,2.9,1.4v-1.3h2.7v8.4c0,0.9-0.2,1.6-0.5,2.3s-0.7,1.2-1.2,1.6
		c-1,0.8-2.2,1.2-3.5,1.2c-0.7,0-1.5-0.1-2.2-0.4c-0.8-0.2-1.4-0.6-2-1l1-2c0.9,0.7,1.8,1,2.8,1s1.8-0.2,2.3-0.7
		C216.3,21.7,216.6,21,216.6,19.9z M216.2,16.5c0-0.8-0.2-1.4-0.6-1.8c-0.4-0.4-1-0.7-1.6-0.7c-0.6,0-1.2,0.2-1.6,0.7
		c-0.5,0.4-0.7,1-0.7,1.8c0,0.8,0.2,1.4,0.7,1.9c0.5,0.5,1,0.7,1.6,0.7s1.2-0.2,1.6-0.7C216,17.9,216.2,17.3,216.2,16.5z"/>
	<path id="XMLID_494_" class="st5" d="M235.1,8.9v2.5h-5.8v2.7h5.5v2.5h-5.5v4.9h-2.8V8.9H235.1z"/>
	<path id="XMLID_496_" class="st5" d="M242.3,14.2c-0.8,0-1.4,0.3-1.8,0.9c-0.4,0.6-0.6,1.3-0.6,2.3v4.2h-2.7v-9.7h2.7v1.3
		c0.3-0.4,0.8-0.7,1.3-1c0.5-0.3,1.1-0.4,1.6-0.4l0,2.5H242.3z"/>
	<path id="XMLID_498_" class="st5" d="M252.7,21.5h-2.5v-1.2c-0.7,0.9-1.6,1.3-2.6,1.3c-1,0-1.9-0.3-2.6-0.9s-1-1.4-1-2.4
		s0.4-1.7,1.1-2.2c0.7-0.5,1.7-0.7,3-0.7h2v-0.1c0-1-0.5-1.5-1.6-1.5c-0.5,0-1,0.1-1.5,0.3c-0.5,0.2-1,0.4-1.3,0.7l-1.2-1.7
		c1.3-0.9,2.7-1.4,4.4-1.4c1.2,0,2.1,0.3,2.9,0.9c0.7,0.6,1.1,1.5,1.1,2.8V21.5z M250,17.8v-0.5h-1.7c-1.1,0-1.6,0.3-1.6,1
		c0,0.3,0.1,0.6,0.4,0.8c0.3,0.2,0.6,0.3,1.1,0.3s0.9-0.1,1.3-0.4S250,18.3,250,17.8z"/>
	<path id="XMLID_501_" class="st5" d="M264.1,16.3v5.2h-2.7v-5.3c0-0.8-0.1-1.3-0.4-1.7c-0.2-0.4-0.6-0.5-1.1-0.5s-1,0.2-1.4,0.6
		c-0.4,0.4-0.6,1-0.6,1.7v5.2h-2.7v-9.7h2.7v1.1c0.7-0.8,1.6-1.3,2.6-1.3c0.6,0,1.2,0.2,1.7,0.5c0.5,0.4,0.9,0.8,1.1,1.3
		c0.4-0.6,0.9-1,1.5-1.4c0.6-0.3,1.3-0.5,1.9-0.5c1.1,0,2.1,0.3,2.8,1c0.7,0.7,1,1.7,1,2.9v5.9h-2.7v-5.3c0-1.5-0.5-2.2-1.6-2.2
		c-0.5,0-1,0.2-1.4,0.6C264.3,15,264.1,15.6,264.1,16.3z"/>
	<path id="XMLID_503_" class="st5" d="M281.3,20.1c-1.1,1-2.4,1.5-3.8,1.5c-1.5,0-2.7-0.5-3.6-1.4s-1.4-2.1-1.4-3.6
		c0-1.5,0.5-2.7,1.5-3.6c1-0.9,2.1-1.3,3.5-1.3s2.5,0.4,3.4,1.2s1.4,1.9,1.4,3.3v1.4H275c0.1,0.5,0.4,1,0.8,1.3
		c0.5,0.3,1,0.5,1.6,0.5c0.9,0,1.7-0.3,2.3-1L281.3,20.1z M278.7,14.4c-0.4-0.3-0.8-0.5-1.4-0.5s-1,0.2-1.5,0.5
		c-0.4,0.3-0.7,0.8-0.8,1.3h4.2C279.3,15.1,279,14.7,278.7,14.4z"/>
	<path id="XMLID_506_" class="st5" d="M289,21.5h-2.8l-3.3-9.7h2.8l1.9,5.8l1.9-5.8h2.6l1.9,5.8l1.9-5.8h2.8l-3.3,9.7h-2.8l-1.8-5.3
		L289,21.5z"/>
	<path id="XMLID_508_" class="st5" d="M309.7,16.7c0,1.4-0.5,2.6-1.5,3.5c-1,1-2.2,1.4-3.7,1.4c-1.5,0-2.7-0.5-3.7-1.4
		c-1-1-1.5-2.1-1.5-3.5c0-1.4,0.5-2.6,1.5-3.6c1-1,2.2-1.4,3.7-1.4c1.5,0,2.7,0.5,3.7,1.4C309.2,14.1,309.7,15.3,309.7,16.7z
		 M302.1,16.7c0,0.8,0.2,1.4,0.7,1.9s1,0.7,1.7,0.7c0.7,0,1.3-0.2,1.7-0.7s0.7-1.1,0.7-1.9s-0.2-1.4-0.7-1.9s-1-0.8-1.7-0.8
		c-0.7,0-1.3,0.3-1.7,0.8S302.1,15.9,302.1,16.7z"/>
	<path id="XMLID_511_" class="st5" d="M316.7,14.2c-0.8,0-1.4,0.3-1.8,0.9c-0.4,0.6-0.6,1.3-0.6,2.3v4.2h-2.7v-9.7h2.7v1.3
		c0.3-0.4,0.8-0.7,1.3-1c0.5-0.3,1.1-0.4,1.6-0.4l0,2.5H316.7z"/>
	<path id="XMLID_513_" class="st5" d="M321.8,21.5h-2.7V8.2h2.7V15l3-3.2h3.4l-3.7,3.9l3.8,5.8h-3.2l-2.5-3.7l-0.9,0.9V21.5z"/>
	<path id="XMLID_515_" class="st5" d="M345.4,19.8c-1.3,1.2-2.8,1.9-4.7,1.9s-3.4-0.6-4.7-1.9c-1.3-1.2-1.9-2.8-1.9-4.6
		c0-1.8,0.6-3.4,1.9-4.6c1.3-1.2,2.8-1.9,4.7-1.9s3.4,0.6,4.7,1.9c1.3,1.2,1.9,2.8,1.9,4.6C347.3,17,346.6,18.5,345.4,19.8z
		 M344.4,15.2c0-1.1-0.4-2.1-1.1-2.9s-1.6-1.2-2.7-1.2s-1.9,0.4-2.7,1.2c-0.7,0.8-1.1,1.7-1.1,2.9s0.4,2.1,1.1,2.9
		c0.7,0.8,1.6,1.2,2.7,1.2s1.9-0.4,2.7-1.2S344.4,16.3,344.4,15.2z"/>
	<path id="XMLID_518_" class="st5" d="M355.6,17.1v-5.2h2.7v9.7h-2.7v-1.3c-0.7,0.9-1.5,1.4-2.6,1.4c-1.1,0-2-0.3-2.7-1
		c-0.7-0.7-1.1-1.7-1.1-3v-5.9h2.7v5.3c0,1.5,0.5,2.2,1.6,2.2c0.5,0,1-0.2,1.4-0.6C355.4,18.4,355.6,17.8,355.6,17.1z"/>
	<path id="XMLID_520_" class="st5" d="M364.1,13.8v4.3c0,0.4,0.1,0.7,0.3,0.9c0.2,0.2,0.4,0.3,0.7,0.3c0.5,0,0.9-0.2,1.3-0.7l1,1.9
		c-0.8,0.8-1.7,1.2-2.7,1.2s-1.7-0.3-2.4-0.9c-0.6-0.6-1-1.4-1-2.5v-4.5h-1.1v-1.9h1.1V8.9h2.7v2.9h2.3v1.9H364.1z"/>
	<path id="XMLID_522_" class="st5" d="M371.5,21.5h-2.7V8.2h2.7V21.5z"/>
	<path id="XMLID_524_" class="st5" d="M374.3,10.6c-0.3-0.3-0.5-0.7-0.5-1.1c0-0.4,0.2-0.8,0.5-1.1c0.3-0.3,0.7-0.5,1.1-0.5
		c0.4,0,0.8,0.2,1.1,0.5c0.3,0.3,0.5,0.7,0.5,1.1c0,0.4-0.2,0.8-0.5,1.1c-0.3,0.3-0.7,0.5-1.1,0.5C375,11.1,374.6,10.9,374.3,10.6z
		 M376.8,21.5h-2.7v-9.7h2.7V21.5z"/>
	<path id="XMLID_527_" class="st5" d="M382,16.1v5.4h-2.7v-9.7h2.7v1.1c0.8-0.8,1.7-1.2,2.8-1.2c1,0,1.9,0.4,2.6,1.1
		c0.7,0.7,1,1.7,1,2.9v5.9h-2.7v-5.5c0-1.5-0.5-2.2-1.6-2.2c-0.5,0-1,0.2-1.4,0.6C382.2,14.8,382,15.4,382,16.1z"/>
	<path id="XMLID_529_" class="st5" d="M399.2,20.1c-1.1,1-2.4,1.5-3.8,1.5c-1.5,0-2.7-0.5-3.6-1.4s-1.4-2.1-1.4-3.6
		c0-1.5,0.5-2.7,1.5-3.6c1-0.9,2.1-1.3,3.5-1.3s2.5,0.4,3.4,1.2s1.4,1.9,1.4,3.3v1.4H393c0.1,0.5,0.4,1,0.8,1.3
		c0.5,0.3,1,0.5,1.6,0.5c0.9,0,1.7-0.3,2.3-1L399.2,20.1z M396.6,14.4c-0.4-0.3-0.8-0.5-1.4-0.5s-1,0.2-1.5,0.5
		c-0.4,0.3-0.7,0.8-0.8,1.3h4.2C397.2,15.1,397,14.7,396.6,14.4z"/>
</g>
<g id="XMLID_423_">
	<path id="XMLID_424_" class="st6" d="M42.7,59.7c1.1,1,1.6,2.3,1.6,4.1c0,1.7-0.5,3.1-1.6,4.1c-1,1-2.6,1.5-4.8,1.5h-3.8V58.2h4
		C40.1,58.2,41.7,58.7,42.7,59.7z M40.9,66.3c0.6-0.6,0.9-1.4,0.9-2.5s-0.3-1.9-0.9-2.5s-1.6-0.9-2.8-0.9h-1.4v6.8h1.6
		C39.4,67.2,40.3,66.9,40.9,66.3z"/>
	<path id="XMLID_427_" class="st6" d="M53.4,69.4h-2.3v-1c-0.6,0.8-1.4,1.2-2.3,1.2s-1.7-0.3-2.3-0.8c-0.6-0.5-0.9-1.2-0.9-2.1
		s0.3-1.5,1-2c0.6-0.4,1.5-0.7,2.6-0.7H51v0c0-0.9-0.5-1.4-1.5-1.4c-0.4,0-0.9,0.1-1.3,0.2s-0.9,0.4-1.2,0.6L46,61.9
		c1.1-0.8,2.4-1.2,3.9-1.2c1,0,1.9,0.3,2.6,0.8c0.7,0.5,1,1.3,1,2.5V69.4z M51,66.1v-0.4h-1.5c-1,0-1.4,0.3-1.4,0.9
		c0,0.3,0.1,0.5,0.3,0.7c0.2,0.2,0.6,0.2,1,0.2c0.4,0,0.8-0.1,1.1-0.4C50.9,66.9,51,66.6,51,66.1z"/>
	<path id="XMLID_430_" class="st6" d="M58.4,62.5v3.9c0,0.3,0.1,0.6,0.3,0.8s0.4,0.3,0.6,0.3c0.4,0,0.8-0.2,1.1-0.6l0.9,1.7
		c-0.7,0.7-1.5,1-2.4,1c-0.8,0-1.5-0.3-2.1-0.8c-0.6-0.5-0.9-1.3-0.9-2.2v-4h-1v-1.7h1v-2.6h2.4v2.6h2.1v1.7H58.4z"/>
	<path id="XMLID_432_" class="st6" d="M69.9,69.4h-2.3v-1c-0.6,0.8-1.4,1.2-2.3,1.2s-1.7-0.3-2.3-0.8c-0.6-0.5-0.9-1.2-0.9-2.1
		s0.3-1.5,1-2c0.6-0.4,1.5-0.7,2.6-0.7h1.8v0c0-0.9-0.5-1.4-1.5-1.4c-0.4,0-0.9,0.1-1.3,0.2s-0.9,0.4-1.2,0.6l-1.1-1.6
		c1.1-0.8,2.4-1.2,3.9-1.2c1,0,1.9,0.3,2.6,0.8c0.7,0.5,1,1.3,1,2.5V69.4z M67.5,66.1v-0.4H66c-1,0-1.4,0.3-1.4,0.9
		c0,0.3,0.1,0.5,0.3,0.7c0.2,0.2,0.6,0.2,1,0.2c0.4,0,0.8-0.1,1.1-0.4C67.3,66.9,67.5,66.6,67.5,66.1z"/>
	<path id="XMLID_435_" class="st6" d="M84.5,69.4l-1-2.4h-4.7l-1,2.4h-2.7l4.8-11.2h2.4l4.8,11.2H84.5z M81.1,61.6l-1.4,3.2h2.8
		L81.1,61.6z"/>
	<path id="XMLID_438_" class="st6" d="M92.4,67.4c0.8,0,1.5-0.4,2.2-1.2l1.4,1.6c-1.1,1.2-2.3,1.7-3.6,1.7c-1.3,0-2.4-0.4-3.3-1.2
		c-0.9-0.8-1.3-1.9-1.3-3.2s0.5-2.4,1.4-3.2c0.9-0.8,2-1.2,3.2-1.2c0.6,0,1.2,0.1,1.9,0.4c0.6,0.3,1.2,0.6,1.7,1.1l-1.2,1.6
		c-0.3-0.3-0.6-0.6-1-0.8c-0.4-0.2-0.8-0.3-1.2-0.3c-0.6,0-1.2,0.2-1.6,0.6c-0.5,0.4-0.7,1-0.7,1.7c0,0.7,0.2,1.3,0.7,1.7
		C91.2,67.2,91.8,67.4,92.4,67.4z"/>
	<path id="XMLID_440_" class="st6" d="M101.7,67.4c0.8,0,1.5-0.4,2.2-1.2l1.4,1.6c-1.1,1.2-2.3,1.7-3.6,1.7c-1.3,0-2.4-0.4-3.3-1.2
		c-0.9-0.8-1.3-1.9-1.3-3.2s0.5-2.4,1.4-3.2c0.9-0.8,2-1.2,3.2-1.2c0.6,0,1.2,0.1,1.9,0.4c0.6,0.3,1.2,0.6,1.7,1.1l-1.2,1.6
		c-0.3-0.3-0.6-0.6-1-0.8c-0.4-0.2-0.8-0.3-1.2-0.3c-0.6,0-1.2,0.2-1.6,0.6c-0.5,0.4-0.7,1-0.7,1.7c0,0.7,0.2,1.3,0.7,1.7
		C100.5,67.2,101.1,67.4,101.7,67.4z"/>
	<path id="XMLID_442_" class="st6" d="M114.3,68.2c-1,0.9-2.1,1.4-3.4,1.4s-2.4-0.4-3.2-1.2c-0.9-0.8-1.3-1.9-1.3-3.2
		c0-1.4,0.4-2.4,1.3-3.2c0.9-0.8,1.9-1.2,3.1-1.2s2.2,0.4,3,1.1c0.8,0.7,1.2,1.7,1.2,2.9V66h-6.3c0.1,0.5,0.3,0.9,0.7,1.2
		c0.4,0.3,0.9,0.4,1.4,0.4c0.8,0,1.5-0.3,2.1-0.8L114.3,68.2z M112,63.1c-0.3-0.3-0.7-0.4-1.2-0.4s-0.9,0.1-1.3,0.4
		s-0.6,0.7-0.7,1.2h3.8C112.5,63.7,112.3,63.3,112,63.1z"/>
	<path id="XMLID_445_" class="st6" d="M123.2,66.7c0,0.8-0.3,1.5-0.9,2c-0.6,0.5-1.4,0.8-2.4,0.8c-0.6,0-1.3-0.1-2-0.3
		c-0.7-0.2-1.3-0.6-1.9-1l1.1-1.5c0.9,0.7,1.9,1,2.9,1c0.3,0,0.6-0.1,0.7-0.2s0.3-0.3,0.3-0.5c0-0.2-0.1-0.4-0.4-0.6
		s-0.6-0.3-1.1-0.5s-0.8-0.3-1.1-0.4c-0.3-0.1-0.5-0.3-0.9-0.5c-0.7-0.4-1-1-1-1.8c0-0.8,0.3-1.4,1-1.9c0.6-0.5,1.5-0.8,2.5-0.8
		c1,0,2,0.3,3,1l-0.9,1.6c-0.7-0.5-1.5-0.8-2.2-0.8c-0.7,0-1.1,0.2-1.1,0.6c0,0.2,0.1,0.4,0.4,0.5s0.6,0.3,1.2,0.4
		c0.5,0.2,0.9,0.3,1.2,0.4s0.5,0.2,0.8,0.4C122.9,65.3,123.2,65.9,123.2,66.7z"/>
	<path id="XMLID_447_" class="st6" d="M131.5,66.7c0,0.8-0.3,1.5-0.9,2c-0.6,0.5-1.4,0.8-2.4,0.8c-0.6,0-1.3-0.1-2-0.3
		c-0.7-0.2-1.3-0.6-1.9-1l1.1-1.5c0.9,0.7,1.9,1,2.9,1c0.3,0,0.6-0.1,0.7-0.2s0.3-0.3,0.3-0.5c0-0.2-0.1-0.4-0.4-0.6
		s-0.6-0.3-1.1-0.5c-0.5-0.1-0.8-0.3-1.1-0.4c-0.3-0.1-0.5-0.3-0.9-0.5c-0.7-0.4-1-1-1-1.8c0-0.8,0.3-1.4,1-1.9
		c0.6-0.5,1.5-0.8,2.5-0.8c1,0,2,0.3,3,1l-0.9,1.6c-0.7-0.5-1.5-0.8-2.2-0.8c-0.7,0-1.1,0.2-1.1,0.6c0,0.2,0.1,0.4,0.4,0.5
		s0.6,0.3,1.2,0.4c0.5,0.2,0.9,0.3,1.2,0.4s0.5,0.2,0.8,0.4C131.2,65.3,131.5,65.9,131.5,66.7z"/>
	<path id="XMLID_449_" class="st6" d="M139.2,56.5h2.3l-6.7,14.7h-2.3L139.2,56.5z"/>
	<path id="XMLID_451_" class="st6" d="M143.3,58.2h2.5v11.2h-2.5V58.2z"/>
	<path id="XMLID_453_" class="st6" d="M150.6,64.6v4.8h-2.4v-8.6h2.4v1c0.7-0.7,1.5-1.1,2.4-1.1s1.7,0.3,2.3,1
		c0.6,0.6,0.9,1.5,0.9,2.6v5.2h-2.4v-4.9c0-1.3-0.5-2-1.5-2c-0.5,0-0.9,0.2-1.3,0.5S150.6,63.9,150.6,64.6z"/>
	<path id="XMLID_455_" class="st6" d="M161.2,62.5v3.9c0,0.3,0.1,0.6,0.3,0.8s0.4,0.3,0.6,0.3c0.4,0,0.8-0.2,1.1-0.6l0.9,1.7
		c-0.7,0.7-1.5,1-2.4,1c-0.8,0-1.5-0.3-2.1-0.8c-0.6-0.5-0.9-1.3-0.9-2.2v-4h-1v-1.7h1v-2.6h2.4v2.6h2.1v1.7H161.2z"/>
	<path id="XMLID_457_" class="st6" d="M172.8,68.2c-1,0.9-2.1,1.4-3.4,1.4s-2.4-0.4-3.2-1.2c-0.9-0.8-1.3-1.9-1.3-3.2
		c0-1.4,0.4-2.4,1.3-3.2c0.9-0.8,1.9-1.2,3.1-1.2s2.2,0.4,3,1.1c0.8,0.7,1.2,1.7,1.2,2.9V66h-6.3c0.1,0.5,0.3,0.9,0.7,1.2
		c0.4,0.3,0.9,0.4,1.4,0.4c0.8,0,1.5-0.3,2.1-0.8L172.8,68.2z M170.5,63.1c-0.3-0.3-0.7-0.4-1.2-0.4s-0.9,0.1-1.3,0.4
		s-0.6,0.7-0.7,1.2h3.8C171,63.7,170.8,63.3,170.5,63.1z"/>
	<path id="XMLID_460_" class="st6" d="M181.6,68c-0.8,0.8-1.7,1.3-2.8,1.3c-1.1,0-2.1-0.4-2.8-1.1s-1.2-1.8-1.2-3.1s0.4-2.3,1.2-3.1
		c0.8-0.8,1.7-1.2,2.7-1.2c1,0,1.9,0.4,2.5,1.3v-1.1h2.4v7.5c0,0.8-0.1,1.5-0.4,2c-0.3,0.6-0.6,1.1-1.1,1.4
		c-0.9,0.7-1.9,1.1-3.1,1.1c-0.6,0-1.3-0.1-2-0.3s-1.3-0.5-1.8-0.9l0.9-1.8c0.8,0.6,1.6,0.9,2.5,0.9s1.6-0.2,2.1-0.7
		C181.3,69.6,181.6,68.9,181.6,68z M181.3,64.9c0-0.7-0.2-1.2-0.6-1.6c-0.4-0.4-0.9-0.6-1.4-0.6s-1.1,0.2-1.5,0.6
		c-0.4,0.4-0.6,0.9-0.6,1.6s0.2,1.2,0.6,1.7c0.4,0.4,0.9,0.6,1.5,0.6c0.6,0,1.1-0.2,1.4-0.6C181.1,66.2,181.3,65.6,181.3,64.9z"/>
	<path id="XMLID_463_" class="st6" d="M190.4,62.9c-0.7,0-1.2,0.3-1.6,0.8c-0.4,0.5-0.5,1.2-0.5,2v3.7h-2.4v-8.6h2.4v1.1
		c0.3-0.4,0.7-0.7,1.2-0.9c0.5-0.2,0.9-0.4,1.4-0.4l0,2.3H190.4z"/>
	<path id="XMLID_465_" class="st6" d="M199.7,69.4h-2.3v-1c-0.6,0.8-1.4,1.2-2.3,1.2s-1.7-0.3-2.3-0.8c-0.6-0.5-0.9-1.2-0.9-2.1
		s0.3-1.5,1-2c0.6-0.4,1.5-0.7,2.6-0.7h1.8v0c0-0.9-0.5-1.4-1.5-1.4c-0.4,0-0.9,0.1-1.3,0.2s-0.9,0.4-1.2,0.6l-1.1-1.6
		c1.1-0.8,2.4-1.2,3.9-1.2c1,0,1.9,0.3,2.6,0.8c0.7,0.5,1,1.3,1,2.5V69.4z M197.3,66.1v-0.4h-1.5c-1,0-1.4,0.3-1.4,0.9
		c0,0.3,0.1,0.5,0.3,0.7c0.2,0.2,0.6,0.2,1,0.2c0.4,0,0.8-0.1,1.1-0.4C197.1,66.9,197.3,66.6,197.3,66.1z"/>
	<path id="XMLID_468_" class="st6" d="M204.7,62.5v3.9c0,0.3,0.1,0.6,0.3,0.8s0.4,0.3,0.6,0.3c0.4,0,0.8-0.2,1.1-0.6l0.9,1.7
		c-0.7,0.7-1.5,1-2.4,1c-0.8,0-1.5-0.3-2.1-0.8c-0.6-0.5-0.9-1.3-0.9-2.2v-4h-1v-1.7h1v-2.6h2.4v2.6h2.1v1.7H204.7z"/>
	<path id="XMLID_470_" class="st6" d="M209,59.7c-0.3-0.3-0.4-0.6-0.4-1s0.1-0.7,0.4-1c0.3-0.3,0.6-0.4,1-0.4s0.7,0.1,1,0.4
		c0.3,0.3,0.4,0.6,0.4,1s-0.1,0.7-0.4,1c-0.3,0.3-0.6,0.4-1,0.4S209.3,60,209,59.7z M211.2,69.4h-2.4v-8.6h2.4V69.4z"/>
	<path id="XMLID_473_" class="st6" d="M222.1,65.1c0,1.2-0.4,2.3-1.3,3.2c-0.9,0.9-1.9,1.3-3.3,1.3s-2.4-0.4-3.3-1.3
		c-0.9-0.9-1.3-1.9-1.3-3.2s0.4-2.3,1.3-3.2c0.9-0.9,1.9-1.3,3.3-1.3s2.4,0.4,3.3,1.3C221.7,62.8,222.1,63.9,222.1,65.1z
		 M215.4,65.1c0,0.7,0.2,1.3,0.6,1.7c0.4,0.4,0.9,0.7,1.5,0.7s1.1-0.2,1.5-0.7s0.6-1,0.6-1.7s-0.2-1.3-0.6-1.7s-0.9-0.7-1.5-0.7
		s-1.1,0.2-1.5,0.7C215.6,63.8,215.4,64.4,215.4,65.1z"/>
	<path id="XMLID_476_" class="st6" d="M226.3,64.6v4.8h-2.4v-8.6h2.4v1c0.7-0.7,1.5-1.1,2.4-1.1s1.7,0.3,2.3,1
		c0.6,0.6,0.9,1.5,0.9,2.6v5.2h-2.4v-4.9c0-1.3-0.5-2-1.5-2c-0.5,0-0.9,0.2-1.3,0.5S226.3,63.9,226.3,64.6z"/>
</g>
<path id="XMLID_30_" class="st7" d="M123.9,127.3h-92c-2.8,0-5-2.2-5-5v-30c0-2.8,2.2-5,5-5h92c2.8,0,5,2.2,5,5v30
	C128.9,125.1,126.6,127.3,123.9,127.3z"/>
<g id="XMLID_411_">
	<path id="XMLID_412_" class="st5" d="M57.6,103.8v-1.7H63v7.4c0,1.3-0.3,2.3-1,2.9c-0.7,0.7-1.5,1-2.5,1c-1.3,0-2.4-0.5-3.3-1.4
		l1.1-1.5c0.7,0.7,1.4,1,2.1,1c0.5,0,0.9-0.2,1.3-0.5c0.3-0.3,0.5-0.8,0.5-1.5v-5.8H57.6z"/>
	<path id="XMLID_414_" class="st5" d="M74.5,103.6c1.1,1,1.6,2.3,1.6,4.1c0,1.7-0.5,3.1-1.6,4.1c-1,1-2.6,1.5-4.8,1.5h-3.7v-11.2
		h3.8C71.9,102.1,73.4,102.6,74.5,103.6z M74.2,107.7c0-2.6-1.5-3.8-4.4-3.8h-1.9v7.7H70c1.4,0,2.4-0.3,3.1-1
		C73.9,109.9,74.2,109,74.2,107.7z"/>
	<path id="XMLID_417_" class="st5" d="M83.5,113.3h-4.9v-11.2h4.4c0.8,0,1.4,0.1,2,0.3c0.5,0.2,1,0.4,1.2,0.7c0.5,0.6,0.8,1.2,0.8,2
		c0,0.9-0.3,1.5-0.8,2c-0.2,0.2-0.3,0.2-0.4,0.3c-0.1,0-0.2,0.1-0.4,0.2c0.7,0.1,1.2,0.5,1.7,0.9s0.6,1.1,0.6,1.8
		c0,0.8-0.3,1.5-0.8,2.1C86.1,113,85,113.3,83.5,113.3z M80.5,106.8h2.4c1.4,0,2-0.5,2-1.4c0-0.5-0.2-0.9-0.5-1.2
		c-0.3-0.2-0.8-0.4-1.5-0.4h-2.4V106.8z M80.5,111.6h3c0.7,0,1.2-0.1,1.6-0.3c0.4-0.2,0.6-0.6,0.6-1.2c0-1-0.8-1.5-2.4-1.5h-2.7
		V111.6z"/>
	<path id="XMLID_421_" class="st5" d="M95,111.6c0.7,0,1.2-0.1,1.7-0.3s1-0.6,1.5-1l1.2,1.2c-1.2,1.3-2.6,2-4.3,2s-3.1-0.5-4.2-1.6
		s-1.7-2.5-1.7-4.1s0.6-3.1,1.7-4.2c1.1-1.1,2.6-1.7,4.3-1.7s3.2,0.6,4.3,1.9l-1.2,1.3c-0.5-0.5-1-0.9-1.5-1.1
		c-0.5-0.2-1-0.3-1.7-0.3c-1.1,0-2.1,0.4-2.8,1.1s-1.2,1.7-1.2,2.8s0.4,2.1,1.1,2.8C93,111.2,93.9,111.6,95,111.6z"/>
</g>
<g id="XMLID_363_">
	<g id="XMLID_857_">
		<path id="XMLID_903_" class="st6" d="M181.2,335.1c-0.2,0.2-0.4,0.5-0.4,0.8s0.1,0.6,0.4,0.8c0.3,0.2,1,0.4,2,0.7
			c1.1,0.3,1.9,0.7,2.5,1.2c0.6,0.5,0.9,1.3,0.9,2.3s-0.4,1.8-1.1,2.4s-1.7,0.9-3,0.9c-1.8,0-3.4-0.7-4.8-2l1.5-1.8
			c1.2,1.1,2.3,1.6,3.3,1.6c0.5,0,0.8-0.1,1.1-0.3s0.4-0.5,0.4-0.8s-0.1-0.6-0.4-0.8s-0.8-0.4-1.6-0.6c-1.3-0.3-2.3-0.7-2.9-1.2
			s-0.9-1.3-0.9-2.3s0.4-1.9,1.1-2.5c0.8-0.6,1.7-0.9,2.9-0.9c0.7,0,1.5,0.1,2.2,0.4s1.4,0.6,2,1.1l-1.3,1.8c-1-0.7-2-1.1-3-1.1
			C181.7,334.8,181.4,334.9,181.2,335.1z"/>
		<path id="XMLID_900_" class="st6" d="M193.5,335.3c1,0,1.9,0.4,2.7,1.3c0.8,0.8,1.2,1.9,1.2,3.2s-0.4,2.3-1.2,3.2
			c-0.8,0.9-1.7,1.3-2.8,1.3c-1.1,0-1.9-0.4-2.5-1.3v4.2h-2.4v-11.7h2.4v1C191.7,335.7,192.5,335.3,193.5,335.3z M190.9,339.7
			c0,0.7,0.2,1.3,0.6,1.7s0.9,0.7,1.4,0.7s1-0.2,1.5-0.7s0.6-1,0.6-1.7s-0.2-1.3-0.6-1.7c-0.4-0.5-0.9-0.7-1.5-0.7s-1,0.2-1.4,0.7
			S190.9,339,190.9,339.7z"/>
		<path id="XMLID_898_" class="st6" d="M203.7,337.5c-0.7,0-1.2,0.3-1.6,0.8c-0.4,0.5-0.5,1.2-0.5,2v3.7h-2.4v-8.6h2.4v1.1
			c0.3-0.4,0.7-0.7,1.2-0.9c0.5-0.2,0.9-0.4,1.4-0.4l0,2.3H203.7z"/>
		<path id="XMLID_895_" class="st6" d="M206,334.3c-0.3-0.3-0.4-0.6-0.4-1s0.1-0.7,0.4-1c0.3-0.3,0.6-0.4,1-0.4s0.7,0.1,1,0.4
			c0.3,0.3,0.4,0.6,0.4,1s-0.1,0.7-0.4,1c-0.3,0.3-0.6,0.4-1,0.4S206.2,334.6,206,334.3z M208.2,344h-2.4v-8.6h2.4V344z"/>
		<path id="XMLID_893_" class="st6" d="M212.8,339.2v4.8h-2.4v-8.6h2.4v1c0.7-0.7,1.5-1.1,2.4-1.1s1.7,0.3,2.3,1
			c0.6,0.6,0.9,1.5,0.9,2.6v5.2h-2.4v-4.9c0-1.3-0.5-2-1.5-2c-0.5,0-0.9,0.2-1.3,0.5S212.8,338.6,212.8,339.2z"/>
		<path id="XMLID_890_" class="st6" d="M227,342.6c-0.8,0.8-1.7,1.3-2.8,1.3c-1.1,0-2.1-0.4-2.8-1.1s-1.2-1.8-1.2-3.1
			s0.4-2.3,1.2-3.1c0.8-0.8,1.7-1.2,2.7-1.2c1,0,1.9,0.4,2.5,1.3v-1.1h2.4v7.5c0,0.8-0.1,1.5-0.4,2c-0.3,0.6-0.6,1.1-1.1,1.4
			c-0.9,0.7-1.9,1.1-3.1,1.1c-0.6,0-1.3-0.1-2-0.3s-1.3-0.5-1.8-0.9l0.9-1.8c0.8,0.6,1.6,0.9,2.5,0.9s1.6-0.2,2.1-0.7
			C226.8,344.2,227,343.5,227,342.6z M226.7,339.5c0-0.7-0.2-1.2-0.6-1.6c-0.4-0.4-0.9-0.6-1.4-0.6s-1.1,0.2-1.5,0.6
			c-0.4,0.4-0.6,0.9-0.6,1.6s0.2,1.2,0.6,1.7c0.4,0.4,0.9,0.6,1.5,0.6c0.6,0,1.1-0.2,1.4-0.6C226.5,340.8,226.7,340.2,226.7,339.5z"
			/>
		<path id="XMLID_888_" class="st6" d="M240.9,341.8c1.2,0,2.2-0.5,3-1.5l1.6,1.6c-1.3,1.4-2.8,2.1-4.5,2.1s-3.1-0.5-4.3-1.6
			s-1.7-2.5-1.7-4.1c0-1.7,0.6-3,1.7-4.2c1.1-1.1,2.5-1.7,4.2-1.7c1.8,0,3.4,0.7,4.6,2.1l-1.6,1.8c-0.8-1-1.8-1.5-2.9-1.5
			c-0.9,0-1.7,0.3-2.4,0.9s-1,1.4-1,2.5s0.3,1.9,0.9,2.5C239.3,341.5,240,341.8,240.9,341.8z"/>
		<path id="XMLID_885_" class="st6" d="M255.5,339.7c0,1.2-0.4,2.3-1.3,3.2c-0.9,0.9-1.9,1.3-3.3,1.3s-2.4-0.4-3.3-1.3
			c-0.9-0.9-1.3-1.9-1.3-3.2s0.4-2.3,1.3-3.2c0.9-0.9,1.9-1.3,3.3-1.3s2.4,0.4,3.3,1.3C255.1,337.4,255.5,338.5,255.5,339.7z
			 M248.8,339.7c0,0.7,0.2,1.3,0.6,1.7c0.4,0.4,0.9,0.7,1.5,0.7s1.1-0.2,1.5-0.7s0.6-1,0.6-1.7s-0.2-1.3-0.6-1.7s-0.9-0.7-1.5-0.7
			s-1.1,0.2-1.5,0.7C249,338.5,248.8,339,248.8,339.7z"/>
		<path id="XMLID_883_" class="st6" d="M261.8,337.5c-0.7,0-1.2,0.3-1.6,0.8c-0.4,0.5-0.5,1.2-0.5,2v3.7h-2.4v-8.6h2.4v1.1
			c0.3-0.4,0.7-0.7,1.2-0.9c0.5-0.2,0.9-0.4,1.4-0.4l0,2.3H261.8z"/>
		<path id="XMLID_880_" class="st6" d="M271.3,342.8c-1,0.9-2.1,1.4-3.4,1.4s-2.4-0.4-3.2-1.2c-0.9-0.8-1.3-1.9-1.3-3.2
			c0-1.4,0.4-2.4,1.3-3.2c0.9-0.8,1.9-1.2,3.1-1.2c1.2,0,2.2,0.4,3,1.1s1.2,1.7,1.2,2.9v1.3h-6.3c0.1,0.5,0.3,0.9,0.7,1.2
			c0.4,0.3,0.9,0.4,1.4,0.4c0.8,0,1.5-0.3,2.1-0.8L271.3,342.8z M269,337.7c-0.3-0.3-0.7-0.4-1.2-0.4s-0.9,0.1-1.3,0.4
			s-0.6,0.7-0.7,1.2h3.8C269.6,338.4,269.4,338,269,337.7z"/>
		<path id="XMLID_878_" class="st6" d="M283.4,341.8c1.2,0,2.2-0.5,3-1.5l1.6,1.6c-1.3,1.4-2.8,2.1-4.5,2.1s-3.1-0.5-4.3-1.6
			c-1.1-1.1-1.7-2.5-1.7-4.1c0-1.7,0.6-3,1.7-4.2c1.1-1.1,2.5-1.7,4.2-1.7c1.8,0,3.4,0.7,4.6,2.1l-1.6,1.8c-0.8-1-1.8-1.5-2.9-1.5
			c-0.9,0-1.7,0.3-2.4,0.9c-0.7,0.6-1,1.4-1,2.5s0.3,1.9,0.9,2.5C281.7,341.5,282.5,341.8,283.4,341.8z"/>
		<path id="XMLID_875_" class="st6" d="M298,339.7c0,1.2-0.4,2.3-1.3,3.2c-0.9,0.9-2,1.3-3.3,1.3s-2.4-0.4-3.3-1.3
			c-0.9-0.9-1.3-1.9-1.3-3.2s0.4-2.3,1.3-3.2s1.9-1.3,3.3-1.3s2.4,0.4,3.3,1.3C297.5,337.4,298,338.5,298,339.7z M291.3,339.7
			c0,0.7,0.2,1.3,0.6,1.7c0.4,0.4,0.9,0.7,1.5,0.7s1.1-0.2,1.5-0.7c0.4-0.4,0.6-1,0.6-1.7s-0.2-1.3-0.6-1.7
			c-0.4-0.4-0.9-0.7-1.5-0.7s-1.1,0.2-1.5,0.7C291.5,338.5,291.3,339,291.3,339.7z"/>
		<path id="XMLID_873_" class="st6" d="M302.2,339.2v4.8h-2.4v-8.6h2.4v1c0.7-0.7,1.5-1.1,2.4-1.1c0.9,0,1.7,0.3,2.3,1
			s0.9,1.5,0.9,2.6v5.2h-2.4v-4.9c0-1.3-0.5-2-1.5-2c-0.5,0-0.9,0.2-1.3,0.5S302.2,338.6,302.2,339.2z"/>
		<path id="XMLID_871_" class="st6" d="M312.7,337.2v3.9c0,0.3,0.1,0.6,0.3,0.8c0.2,0.2,0.4,0.3,0.6,0.3c0.4,0,0.8-0.2,1.1-0.6
			l0.9,1.7c-0.7,0.7-1.5,1-2.4,1c-0.8,0-1.5-0.3-2.1-0.8c-0.6-0.5-0.9-1.3-0.9-2.2v-4h-1v-1.7h1v-2.6h2.4v2.6h2.1v1.7H312.7z"/>
		<path id="XMLID_868_" class="st6" d="M324.2,344h-2.3v-1c-0.6,0.8-1.4,1.2-2.3,1.2s-1.7-0.3-2.3-0.8s-0.9-1.2-0.9-2.1s0.3-1.5,1-2
			s1.5-0.7,2.6-0.7h1.8v0c0-0.9-0.5-1.4-1.5-1.4c-0.4,0-0.9,0.1-1.3,0.2s-0.9,0.4-1.2,0.6l-1.1-1.6c1.1-0.8,2.4-1.2,3.9-1.2
			c1,0,1.9,0.3,2.6,0.8c0.7,0.5,1,1.3,1,2.5V344z M321.8,340.8v-0.4h-1.5c-1,0-1.4,0.3-1.4,0.9c0,0.3,0.1,0.5,0.3,0.7s0.6,0.2,1,0.2
			c0.4,0,0.8-0.1,1.1-0.4C321.6,341.5,321.8,341.2,321.8,340.8z"/>
		<path id="XMLID_865_" class="st6" d="M326.6,334.3c-0.3-0.3-0.4-0.6-0.4-1s0.1-0.7,0.4-1c0.3-0.3,0.6-0.4,1-0.4s0.7,0.1,1,0.4
			c0.3,0.3,0.4,0.6,0.4,1s-0.1,0.7-0.4,1c-0.3,0.3-0.6,0.4-1,0.4S326.9,334.6,326.6,334.3z M328.8,344h-2.4v-8.6h2.4V344z"/>
		<path id="XMLID_863_" class="st6" d="M333.5,339.2v4.8h-2.4v-8.6h2.4v1c0.7-0.7,1.5-1.1,2.4-1.1c0.9,0,1.7,0.3,2.3,1
			s0.9,1.5,0.9,2.6v5.2h-2.4v-4.9c0-1.3-0.5-2-1.5-2c-0.5,0-0.9,0.2-1.3,0.5S333.5,338.6,333.5,339.2z"/>
		<path id="XMLID_860_" class="st6" d="M348.7,342.8c-1,0.9-2.1,1.4-3.4,1.4s-2.4-0.4-3.2-1.2c-0.9-0.8-1.3-1.9-1.3-3.2
			c0-1.4,0.4-2.4,1.3-3.2c0.9-0.8,1.9-1.2,3.1-1.2c1.2,0,2.2,0.4,3,1.1s1.2,1.7,1.2,2.9v1.3h-6.3c0.1,0.5,0.3,0.9,0.7,1.2
			s0.9,0.4,1.4,0.4c0.8,0,1.5-0.3,2.1-0.8L348.7,342.8z M346.4,337.7c-0.3-0.3-0.7-0.4-1.2-0.4s-0.9,0.1-1.3,0.4s-0.6,0.7-0.7,1.2
			h3.8C347,338.4,346.8,338,346.4,337.7z"/>
		<path id="XMLID_858_" class="st6" d="M355.7,337.5c-0.7,0-1.2,0.3-1.6,0.8c-0.4,0.5-0.5,1.2-0.5,2v3.7h-2.4v-8.6h2.4v1.1
			c0.3-0.4,0.7-0.7,1.2-0.9c0.5-0.2,0.9-0.4,1.4-0.4l0,2.3H355.7z"/>
	</g>
</g>
<path id="XMLID_28_" class="st7" d="M130.9,421.7h-100c-2.8,0-5-2.2-5-5V367c0-2.8,2.2-5,5-5h100c2.8,0,5,2.2,5,5v49.7
	C135.9,419.4,133.7,421.7,130.9,421.7z"/>
<path id="XMLID_34_" class="st7" d="M254.9,421.7h-100c-2.8,0-5-2.2-5-5V367c0-2.8,2.2-5,5-5h100c2.8,0,5,2.2,5,5v49.7
	C259.9,419.4,257.7,421.7,254.9,421.7z"/>
<path id="XMLID_36_" class="st7" d="M378.9,421.7h-100c-2.8,0-5-2.2-5-5V367c0-2.8,2.2-5,5-5h100c2.8,0,5,2.2,5,5v49.7
	C383.9,419.4,381.7,421.7,378.9,421.7z"/>
<path id="XMLID_37_" class="st7" d="M502.9,421.7h-100c-2.8,0-5-2.2-5-5V367c0-2.8,2.2-5,5-5h100c2.8,0,5,2.2,5,5v49.7
	C507.9,419.4,505.7,421.7,502.9,421.7z"/>
<g id="XMLID_352_">
	<path id="XMLID_353_" class="st5" d="M64.4,394.6c0.7,0,1.2-0.1,1.7-0.3s1-0.6,1.5-1l1.2,1.2c-1.2,1.3-2.6,2-4.3,2
		c-1.7,0-3.1-0.5-4.2-1.6s-1.7-2.5-1.7-4.1s0.6-3.1,1.7-4.2c1.1-1.1,2.6-1.7,4.3-1.7c1.7,0,3.2,0.6,4.3,1.9l-1.2,1.3
		c-0.5-0.5-1-0.9-1.5-1.1c-0.5-0.2-1-0.3-1.7-0.3c-1.1,0-2.1,0.4-2.8,1.1s-1.2,1.7-1.2,2.8s0.4,2.1,1.1,2.8
		C62.5,394.3,63.4,394.6,64.4,394.6z"/>
	<path id="XMLID_355_" class="st5" d="M77.7,395.2c-0.9,0.8-1.9,1.3-3.2,1.3c-1.3,0-2.3-0.4-3.2-1.3c-0.9-0.8-1.3-1.9-1.3-3.1
		s0.4-2.3,1.3-3.1c0.9-0.8,1.9-1.3,3.2-1.3c1.3,0,2.3,0.4,3.2,1.3c0.9,0.8,1.3,1.9,1.3,3.1S78.6,394.4,77.7,395.2z M72.6,394.1
		c0.5,0.5,1.1,0.8,1.9,0.8s1.4-0.3,1.9-0.8c0.5-0.5,0.8-1.2,0.8-2s-0.3-1.5-0.8-2c-0.5-0.5-1.1-0.8-1.9-0.8s-1.4,0.3-1.9,0.8
		c-0.5,0.5-0.8,1.2-0.8,2S72.1,393.6,72.6,394.1z"/>
	<path id="XMLID_358_" class="st5" d="M85.5,389.5c-0.9,0-1.6,0.3-2,0.9c-0.4,0.6-0.7,1.3-0.7,2.3v3.6H81v-8.5h1.8v1.7
		c0.3-0.5,0.7-1,1.2-1.3c0.5-0.3,1-0.5,1.6-0.5L85.5,389.5C85.6,389.5,85.5,389.5,85.5,389.5z"/>
	<path id="XMLID_360_" class="st5" d="M95.3,392.9h-6.7c0,0.6,0.3,1.1,0.8,1.5c0.5,0.4,1.1,0.6,1.8,0.6c1.1,0,1.9-0.3,2.4-1l1,1.1
		c-0.9,0.9-2.1,1.4-3.6,1.4c-1.2,0-2.2-0.4-3-1.2c-0.8-0.8-1.3-1.9-1.3-3.2s0.4-2.4,1.3-3.2c0.9-0.8,1.9-1.2,3-1.2s2.1,0.3,3,1
		s1.2,1.7,1.2,2.9V392.9z M88.6,391.5h4.9c0-0.7-0.2-1.3-0.7-1.6c-0.4-0.4-1-0.6-1.7-0.6c-0.7,0-1.2,0.2-1.8,0.6
		C88.9,390.2,88.6,390.8,88.6,391.5z"/>
</g>
<g id="XMLID_337_">
	<path id="XMLID_338_" class="st5" d="M186.8,396.3h-4.9v-11.2h4.4c0.8,0,1.4,0.1,2,0.3c0.5,0.2,1,0.4,1.2,0.7
		c0.5,0.6,0.8,1.2,0.8,2c0,0.9-0.3,1.5-0.8,2c-0.2,0.2-0.3,0.2-0.4,0.3c-0.1,0-0.2,0.1-0.4,0.2c0.7,0.1,1.2,0.5,1.7,0.9
		s0.6,1.1,0.6,1.8c0,0.8-0.3,1.5-0.8,2.1C189.4,396,188.4,396.3,186.8,396.3z M183.8,389.8h2.4c1.4,0,2-0.5,2-1.4
		c0-0.5-0.2-0.9-0.5-1.2c-0.3-0.2-0.8-0.4-1.5-0.4h-2.4V389.8z M183.8,394.6h3c0.7,0,1.2-0.1,1.6-0.3c0.4-0.2,0.6-0.6,0.6-1.2
		c0-1-0.8-1.5-2.4-1.5h-2.7V394.6z"/>
	<path id="XMLID_342_" class="st5" d="M200.9,392.9h-6.7c0,0.6,0.3,1.1,0.8,1.5c0.5,0.4,1.1,0.6,1.8,0.6c1.1,0,1.9-0.3,2.4-1l1,1.1
		c-0.9,0.9-2.1,1.4-3.6,1.4c-1.2,0-2.2-0.4-3-1.2c-0.8-0.8-1.3-1.9-1.3-3.2s0.4-2.4,1.3-3.2c0.9-0.8,1.9-1.2,3-1.2s2.1,0.3,3,1
		s1.2,1.7,1.2,2.9V392.9z M194.2,391.5h4.9c0-0.7-0.2-1.3-0.7-1.6c-0.4-0.4-1-0.6-1.7-0.6c-0.7,0-1.2,0.2-1.8,0.6
		C194.5,390.2,194.2,390.8,194.2,391.5z"/>
	<path id="XMLID_345_" class="st5" d="M209.8,396.3h-1.6v-1.1c-0.7,0.8-1.6,1.3-2.8,1.3c-0.9,0-1.6-0.3-2.2-0.8
		c-0.6-0.5-0.9-1.2-0.9-2c0-0.8,0.3-1.5,0.9-1.9s1.5-0.6,2.5-0.6h2.3v-0.3c0-1.1-0.6-1.7-1.9-1.7c-0.8,0-1.6,0.3-2.5,0.9l-0.8-1.1
		c1-0.8,2.2-1.2,3.5-1.2c1,0,1.8,0.3,2.5,0.8c0.6,0.5,1,1.3,1,2.4V396.3z M208,393.2v-0.7h-2c-1.3,0-1.9,0.4-1.9,1.2
		c0,0.4,0.2,0.7,0.5,1c0.3,0.2,0.8,0.3,1.3,0.3c0.6,0,1.1-0.2,1.5-0.5S208,393.7,208,393.2z"/>
	<path id="XMLID_348_" class="st5" d="M214.1,391.7v4.6h-1.8v-8.5h1.8v1.6c0.3-0.5,0.7-0.9,1.2-1.2c0.5-0.3,1.1-0.4,1.6-0.4
		c1,0,1.7,0.3,2.3,0.9c0.6,0.6,0.9,1.4,0.9,2.5v5.2h-1.8v-4.7c0-1.6-0.7-2.4-2-2.4c-0.6,0-1.2,0.2-1.6,0.6
		C214.3,390.4,214.1,391,214.1,391.7z"/>
	<path id="XMLID_350_" class="st5" d="M228.7,393.8c0,0.8-0.3,1.5-0.9,1.9c-0.6,0.5-1.3,0.7-2.3,0.7c-0.6,0-1.3-0.1-1.9-0.3
		s-1.3-0.5-1.8-0.9l0.9-1.4c1,0.7,2,1.1,2.9,1.1c0.4,0,0.7-0.1,1-0.3c0.2-0.2,0.4-0.4,0.4-0.7c0-0.4-0.6-0.8-1.7-1.2
		c-0.1,0-0.1-0.1-0.2-0.1c-1.8-0.5-2.7-1.3-2.7-2.4c0-0.8,0.3-1.4,0.9-1.9s1.4-0.7,2.4-0.7c1,0,1.9,0.3,2.8,0.9l-0.7,1.3
		c-0.7-0.5-1.4-0.7-2.3-0.7c-0.4,0-0.8,0.1-1,0.2c-0.3,0.2-0.4,0.4-0.4,0.7c0,0.3,0.1,0.5,0.4,0.6c0.2,0.1,0.5,0.2,0.8,0.3
		c0.3,0.1,0.7,0.2,0.9,0.3c0.3,0.1,0.5,0.2,0.8,0.3c0.3,0.1,0.5,0.3,0.8,0.4C228.4,392.4,228.7,393,228.7,393.8z"/>
</g>
<g id="XMLID_320_">
	<path id="XMLID_321_" class="st5" d="M303.4,394.6c0.7,0,1.2-0.1,1.7-0.3c0.5-0.2,1-0.6,1.5-1l1.2,1.2c-1.2,1.3-2.6,2-4.3,2
		s-3.1-0.5-4.2-1.6c-1.1-1.1-1.7-2.5-1.7-4.1s0.6-3.1,1.7-4.2s2.6-1.7,4.3-1.7s3.2,0.6,4.3,1.9l-1.2,1.3c-0.5-0.5-1-0.9-1.5-1.1
		c-0.5-0.2-1-0.3-1.7-0.3c-1.1,0-2.1,0.4-2.8,1.1c-0.8,0.7-1.2,1.7-1.2,2.8s0.4,2.1,1.1,2.8C301.5,394.3,302.4,394.6,303.4,394.6z"
		/>
	<path id="XMLID_323_" class="st5" d="M316.7,395.2c-0.9,0.8-1.9,1.3-3.2,1.3s-2.3-0.4-3.2-1.3c-0.9-0.8-1.3-1.9-1.3-3.1
		s0.4-2.3,1.3-3.1c0.9-0.8,1.9-1.3,3.2-1.3s2.3,0.4,3.2,1.3c0.9,0.8,1.3,1.9,1.3,3.1S317.6,394.4,316.7,395.2z M311.6,394.1
		c0.5,0.5,1.1,0.8,1.9,0.8c0.8,0,1.4-0.3,1.9-0.8s0.8-1.2,0.8-2s-0.3-1.5-0.8-2s-1.1-0.8-1.9-0.8c-0.8,0-1.4,0.3-1.9,0.8
		c-0.5,0.5-0.8,1.2-0.8,2S311.1,393.6,311.6,394.1z"/>
	<path id="XMLID_326_" class="st5" d="M321.8,391.7v4.6h-1.8v-8.5h1.8v1.6c0.3-0.5,0.7-0.9,1.2-1.2c0.5-0.3,1.1-0.4,1.6-0.4
		c1,0,1.7,0.3,2.3,0.9c0.6,0.6,0.9,1.4,0.9,2.5v5.2h-1.8v-4.7c0-1.6-0.7-2.4-2-2.4c-0.6,0-1.2,0.2-1.6,0.6
		C322.1,390.4,321.8,391,321.8,391.7z"/>
	<path id="XMLID_328_" class="st5" d="M332.5,389.3v4.3c0,0.4,0.1,0.7,0.3,1c0.2,0.2,0.5,0.4,0.9,0.4s0.8-0.2,1.1-0.6l0.7,1.3
		c-0.6,0.6-1.3,0.8-2.1,0.8s-1.4-0.3-2-0.8c-0.5-0.5-0.8-1.2-0.8-2.1v-4.3h-1.1v-1.4h1.1v-2.7h1.8v2.7h2.2v1.4H332.5z"/>
	<path id="XMLID_330_" class="st5" d="M344.9,392.9h-6.7c0,0.6,0.3,1.1,0.8,1.5c0.5,0.4,1.1,0.6,1.8,0.6c1.1,0,1.9-0.3,2.4-1l1,1.1
		c-0.9,0.9-2.1,1.4-3.6,1.4c-1.2,0-2.2-0.4-3-1.2c-0.8-0.8-1.3-1.9-1.3-3.2s0.4-2.4,1.3-3.2c0.9-0.8,1.9-1.2,3-1.2s2.1,0.3,3,1
		s1.2,1.7,1.2,2.9V392.9z M338.2,391.5h4.9c0-0.7-0.2-1.3-0.7-1.6c-0.4-0.4-1-0.6-1.7-0.6s-1.2,0.2-1.8,0.6
		C338.5,390.2,338.2,390.8,338.2,391.5z"/>
	<path id="XMLID_333_" class="st5" d="M348,387.8l1.8,2.8l1.9-2.8h2.1l-3,4.2l3.1,4.4h-2.2l-2-2.8l-2,2.8h-2.1l3-4.3l-2.9-4.2H348z"
		/>
	<path id="XMLID_335_" class="st5" d="M357.8,389.3v4.3c0,0.4,0.1,0.7,0.3,1c0.2,0.2,0.5,0.4,0.9,0.4s0.8-0.2,1.1-0.6l0.7,1.3
		c-0.6,0.6-1.3,0.8-2.1,0.8s-1.4-0.3-2-0.8c-0.5-0.5-0.8-1.2-0.8-2.1v-4.3H355v-1.4h1.1v-2.7h1.8v2.7h2.2v1.4H357.8z"/>
</g>
<g id="XMLID_274_">
	<path id="XMLID_275_" class="st5" d="M418.4,375.6v1.8h-6v3h5.4v1.7h-5.4v3h6.2v1.8h-8v-11.2H418.4z"/>
	<path id="XMLID_277_" class="st5" d="M422.2,378.2l1.8,2.8l1.9-2.8h2.1l-3,4.2l3.1,4.4h-2.2l-2-2.8l-2,2.8h-2.1l3-4.3l-2.9-4.2
		H422.2z"/>
	<path id="XMLID_279_" class="st5" d="M434.3,378.1c1.1,0,2.1,0.4,2.9,1.2c0.8,0.8,1.2,1.8,1.2,3.2c0,1.3-0.4,2.4-1.2,3.2
		c-0.8,0.8-1.7,1.2-2.8,1.2s-2-0.5-2.9-1.4v4.4h-1.8v-11.6h1.8v1.5C432.2,378.6,433.1,378.1,434.3,378.1z M431.5,382.5
		c0,0.8,0.2,1.5,0.7,2c0.5,0.5,1.1,0.8,1.8,0.8c0.7,0,1.3-0.3,1.8-0.8c0.5-0.5,0.8-1.2,0.8-2c0-0.8-0.3-1.5-0.8-2
		c-0.5-0.5-1.1-0.8-1.8-0.8c-0.7,0-1.3,0.3-1.8,0.8C431.7,381,431.5,381.7,431.5,382.5z"/>
	<path id="XMLID_282_" class="st5" d="M444.9,379.9c-0.9,0-1.6,0.3-2,0.9c-0.4,0.6-0.7,1.3-0.7,2.3v3.6h-1.8v-8.5h1.8v1.7
		c0.3-0.5,0.7-1,1.2-1.3c0.5-0.3,1-0.5,1.6-0.5L444.9,379.9C445,379.9,445,379.9,444.9,379.9z"/>
	<path id="XMLID_284_" class="st5" d="M454.7,383.3h-6.7c0,0.6,0.3,1.1,0.8,1.5c0.5,0.4,1.1,0.6,1.8,0.6c1.1,0,1.9-0.3,2.4-1l1,1.1
		c-0.9,0.9-2.1,1.4-3.6,1.4c-1.2,0-2.2-0.4-3-1.2c-0.8-0.8-1.3-1.9-1.3-3.2s0.4-2.4,1.3-3.2c0.9-0.8,1.9-1.2,3-1.2
		c1.2,0,2.1,0.3,3,1s1.2,1.7,1.2,2.9V383.3z M448.1,381.9h4.9c0-0.7-0.2-1.3-0.7-1.6c-0.4-0.4-1-0.6-1.7-0.6c-0.7,0-1.2,0.2-1.8,0.6
		C448.3,380.6,448.1,381.2,448.1,381.9z"/>
	<path id="XMLID_287_" class="st5" d="M462.8,384.2c0,0.8-0.3,1.5-0.9,1.9s-1.3,0.7-2.3,0.7c-0.6,0-1.3-0.1-1.9-0.3
		c-0.7-0.2-1.3-0.5-1.8-0.9l0.9-1.4c1,0.7,2,1.1,2.9,1.1c0.4,0,0.7-0.1,1-0.3c0.2-0.2,0.4-0.4,0.4-0.7c0-0.4-0.6-0.8-1.7-1.2
		c-0.1,0-0.1-0.1-0.2-0.1c-1.8-0.5-2.7-1.3-2.7-2.4c0-0.8,0.3-1.4,0.9-1.9s1.4-0.7,2.4-0.7c1,0,1.9,0.3,2.8,0.9l-0.7,1.3
		c-0.7-0.5-1.4-0.7-2.3-0.7c-0.4,0-0.8,0.1-1,0.2c-0.3,0.2-0.4,0.4-0.4,0.7c0,0.3,0.1,0.5,0.4,0.6c0.2,0.1,0.5,0.2,0.8,0.3
		c0.3,0.1,0.7,0.2,0.9,0.3c0.3,0.1,0.5,0.2,0.8,0.3c0.3,0.1,0.5,0.3,0.8,0.4C462.5,382.8,462.8,383.4,462.8,384.2z"/>
	<path id="XMLID_289_" class="st5" d="M470.9,384.2c0,0.8-0.3,1.5-0.9,1.9s-1.3,0.7-2.3,0.7c-0.6,0-1.3-0.1-1.9-0.3
		c-0.7-0.2-1.3-0.5-1.8-0.9l0.9-1.4c1,0.7,2,1.1,2.9,1.1c0.4,0,0.7-0.1,1-0.3c0.2-0.2,0.4-0.4,0.4-0.7c0-0.4-0.6-0.8-1.7-1.2
		c-0.1,0-0.1-0.1-0.2-0.1c-1.8-0.5-2.7-1.3-2.7-2.4c0-0.8,0.3-1.4,0.9-1.9s1.4-0.7,2.4-0.7c1,0,1.9,0.3,2.8,0.9l-0.7,1.3
		c-0.7-0.5-1.4-0.7-2.3-0.7c-0.4,0-0.8,0.1-1,0.2c-0.3,0.2-0.4,0.4-0.4,0.7c0,0.3,0.1,0.5,0.4,0.6c0.2,0.1,0.5,0.2,0.8,0.3
		c0.3,0.1,0.7,0.2,0.9,0.3c0.3,0.1,0.5,0.2,0.8,0.3c0.3,0.1,0.5,0.3,0.8,0.4C470.6,382.8,470.9,383.4,470.9,384.2z"/>
	<path id="XMLID_291_" class="st5" d="M473,376.5c-0.2-0.2-0.3-0.5-0.3-0.8s0.1-0.6,0.3-0.8c0.2-0.2,0.5-0.3,0.8-0.3
		c0.3,0,0.6,0.1,0.8,0.3c0.2,0.2,0.3,0.5,0.3,0.8s-0.1,0.6-0.3,0.8c-0.2,0.2-0.5,0.3-0.8,0.3C473.5,376.9,473.2,376.8,473,376.5z
		 M474.7,386.7h-1.8v-8.5h1.8V386.7z"/>
	<path id="XMLID_294_" class="st5" d="M484.4,385.6c-0.9,0.8-1.9,1.3-3.2,1.3c-1.3,0-2.3-0.4-3.2-1.3c-0.9-0.8-1.3-1.9-1.3-3.1
		s0.4-2.3,1.3-3.1c0.9-0.8,1.9-1.3,3.2-1.3c1.3,0,2.3,0.4,3.2,1.3c0.9,0.8,1.3,1.9,1.3,3.1S485.3,384.8,484.4,385.6z M479.3,384.5
		c0.5,0.5,1.1,0.8,1.9,0.8c0.8,0,1.4-0.3,1.9-0.8c0.5-0.5,0.8-1.2,0.8-2s-0.3-1.5-0.8-2c-0.5-0.5-1.1-0.8-1.9-0.8
		c-0.8,0-1.4,0.3-1.9,0.8c-0.5,0.5-0.8,1.2-0.8,2S478.8,384,479.3,384.5z"/>
	<path id="XMLID_297_" class="st5" d="M489.5,382.1v4.6h-1.8v-8.5h1.8v1.6c0.3-0.5,0.7-0.9,1.2-1.2c0.5-0.3,1.1-0.4,1.6-0.4
		c1,0,1.7,0.3,2.3,0.9s0.9,1.4,0.9,2.5v5.2h-1.8v-4.7c0-1.6-0.7-2.4-2-2.4c-0.6,0-1.2,0.2-1.6,0.6
		C489.7,380.8,489.5,381.4,489.5,382.1z"/>
	<path id="XMLID_299_" class="st5" d="M414.8,405.9v-11.2h1.9v9.4h5.1v1.8H414.8z"/>
	<path id="XMLID_301_" class="st5" d="M430.5,405.9h-1.6v-1.1c-0.7,0.8-1.6,1.3-2.8,1.3c-0.9,0-1.6-0.3-2.2-0.8
		c-0.6-0.5-0.9-1.2-0.9-2c0-0.8,0.3-1.5,0.9-1.9c0.6-0.4,1.5-0.6,2.5-0.6h2.3v-0.3c0-1.1-0.6-1.7-1.9-1.7c-0.8,0-1.6,0.3-2.5,0.9
		l-0.8-1.1c1-0.8,2.2-1.2,3.5-1.2c1,0,1.8,0.3,2.5,0.8c0.6,0.5,1,1.3,1,2.4V405.9z M428.7,402.8v-0.7h-2c-1.3,0-1.9,0.4-1.9,1.2
		c0,0.4,0.2,0.7,0.5,1s0.8,0.3,1.3,0.3s1.1-0.2,1.5-0.5C428.5,403.8,428.7,403.3,428.7,402.8z"/>
	<path id="XMLID_304_" class="st5" d="M434.8,401.3v4.6H433v-8.5h1.8v1.6c0.3-0.5,0.7-0.9,1.2-1.2c0.5-0.3,1.1-0.4,1.6-0.4
		c1,0,1.7,0.3,2.3,0.9s0.9,1.4,0.9,2.5v5.2H439v-4.7c0-1.6-0.7-2.4-2-2.4c-0.6,0-1.2,0.2-1.6,0.6C435,400,434.8,400.6,434.8,401.3z"
		/>
	<path id="XMLID_306_" class="st5" d="M451.2,397.4v7.4c0,1.5-0.4,2.6-1.2,3.4s-1.9,1.1-3.1,1.1c-1.3,0-2.4-0.4-3.5-1.2l0.8-1.4
		c0.8,0.6,1.7,0.9,2.5,0.9c0.8,0,1.5-0.2,2-0.7c0.5-0.4,0.7-1.1,0.7-2.1v-1.1c-0.3,0.5-0.6,0.9-1.1,1.2s-1.1,0.4-1.7,0.4
		c-1.1,0-2.1-0.4-2.8-1.2c-0.7-0.8-1.1-1.8-1.1-2.9c0-1.2,0.4-2.2,1.1-2.9c0.7-0.8,1.7-1.2,2.8-1.2c1.1,0,2,0.5,2.7,1.4v-1.3H451.2z
		 M444.5,401.4c0,0.7,0.2,1.3,0.6,1.8c0.4,0.5,1,0.8,1.7,0.8s1.3-0.2,1.8-0.7c0.5-0.5,0.7-1.1,0.7-1.8s-0.2-1.3-0.7-1.9
		c-0.5-0.5-1.1-0.8-1.8-0.8c-0.7,0-1.3,0.3-1.7,0.8C444.8,400.1,444.5,400.7,444.5,401.4z"/>
	<path id="XMLID_309_" class="st5" d="M459.7,402v-4.6h1.8v8.5h-1.8v-1.6c-0.3,0.5-0.7,0.9-1.2,1.2c-0.5,0.3-1.1,0.4-1.6,0.4
		c-1,0-1.7-0.3-2.3-0.9s-0.9-1.4-0.9-2.5v-5.2h1.8v4.7c0,1.6,0.7,2.4,2,2.4c0.6,0,1.2-0.2,1.6-0.6
		C459.5,403.4,459.7,402.8,459.7,402z"/>
	<path id="XMLID_311_" class="st5" d="M471,405.9h-1.6v-1.1c-0.7,0.8-1.6,1.3-2.8,1.3c-0.9,0-1.6-0.3-2.2-0.8
		c-0.6-0.5-0.9-1.2-0.9-2c0-0.8,0.3-1.5,0.9-1.9c0.6-0.4,1.5-0.6,2.5-0.6h2.3v-0.3c0-1.1-0.6-1.7-1.9-1.7c-0.8,0-1.6,0.3-2.5,0.9
		l-0.8-1.1c1-0.8,2.2-1.2,3.5-1.2c1,0,1.8,0.3,2.5,0.8c0.6,0.5,1,1.3,1,2.4V405.9z M469.2,402.8v-0.7h-2c-1.3,0-1.9,0.4-1.9,1.2
		c0,0.4,0.2,0.7,0.5,1s0.8,0.3,1.3,0.3s1.1-0.2,1.5-0.5C469,403.8,469.2,403.3,469.2,402.8z"/>
	<path id="XMLID_314_" class="st5" d="M481.4,397.4v7.4c0,1.5-0.4,2.6-1.2,3.4s-1.9,1.1-3.1,1.1c-1.3,0-2.4-0.4-3.5-1.2l0.8-1.4
		c0.8,0.6,1.7,0.9,2.5,0.9c0.8,0,1.5-0.2,2-0.7c0.5-0.4,0.7-1.1,0.7-2.1v-1.1c-0.3,0.5-0.6,0.9-1.1,1.2s-1.1,0.4-1.7,0.4
		c-1.1,0-2.1-0.4-2.8-1.2c-0.7-0.8-1.1-1.8-1.1-2.9c0-1.2,0.4-2.2,1.1-2.9c0.7-0.8,1.7-1.2,2.8-1.2c1.1,0,2,0.5,2.7,1.4v-1.3H481.4z
		 M474.7,401.4c0,0.7,0.2,1.3,0.6,1.8c0.4,0.5,1,0.8,1.7,0.8s1.3-0.2,1.8-0.7c0.5-0.5,0.7-1.1,0.7-1.8s-0.2-1.3-0.7-1.9
		c-0.5-0.5-1.1-0.8-1.8-0.8c-0.7,0-1.3,0.3-1.7,0.8C475,400.1,474.7,400.7,474.7,401.4z"/>
	<path id="XMLID_317_" class="st5" d="M491.9,402.5h-6.7c0,0.6,0.3,1.1,0.8,1.5c0.5,0.4,1.1,0.6,1.8,0.6c1.1,0,1.9-0.3,2.4-1l1,1.1
		c-0.9,0.9-2.1,1.4-3.6,1.4c-1.2,0-2.2-0.4-3-1.2c-0.8-0.8-1.3-1.9-1.3-3.2s0.4-2.4,1.3-3.2c0.9-0.8,1.9-1.2,3-1.2
		c1.2,0,2.1,0.3,3,1s1.2,1.7,1.2,2.9V402.5z M485.2,401.1h4.9c0-0.7-0.2-1.3-0.7-1.6c-0.4-0.4-1-0.6-1.7-0.6s-1.2,0.2-1.8,0.6
		C485.5,399.8,485.2,400.4,485.2,401.1z"/>
</g>
<path id="XMLID_4_" class="st7" d="M233.9,127.3h-92c-2.8,0-5-2.2-5-5v-30c0-2.8,2.2-5,5-5h92c2.8,0,5,2.2,5,5v30
	C238.9,125.1,236.7,127.3,233.9,127.3z"/>
<g id="XMLID_265_">
	<path id="XMLID_266_" class="st5" d="M178.4,111.8c-1.1,1.1-2.5,1.7-4.2,1.7c-1.7,0-3.1-0.6-4.2-1.7c-1.1-1.1-1.7-2.5-1.7-4.1
		c0-1.6,0.6-3,1.7-4.1c1.1-1.1,2.5-1.7,4.2-1.7c1.7,0,3.1,0.6,4.2,1.7c1.1,1.1,1.7,2.5,1.7,4.1C180.1,109.3,179.5,110.7,178.4,111.8
		z M177,104.8c-0.8-0.8-1.7-1.2-2.8-1.2c-1.1,0-2,0.4-2.8,1.2c-0.8,0.8-1.1,1.7-1.1,2.9s0.4,2.1,1.1,2.9c0.8,0.8,1.7,1.2,2.8,1.2
		c1.1,0,2-0.4,2.8-1.2s1.1-1.7,1.1-2.9S177.8,105.6,177,104.8z"/>
	<path id="XMLID_269_" class="st5" d="M191.4,105.8c0,1.8-0.8,3-2.4,3.5l2.9,4.1h-2.4l-2.7-3.8h-2.5v3.8h-1.9v-11.2h4.2
		c1.7,0,2.9,0.3,3.7,0.9S191.4,104.5,191.4,105.8z M188.9,107.4c0.4-0.3,0.6-0.9,0.6-1.6s-0.2-1.2-0.6-1.5c-0.4-0.3-1.1-0.4-2.1-0.4
		h-2.4v4h2.4C187.8,107.9,188.5,107.7,188.9,107.4z"/>
	<path id="XMLID_272_" class="st5" d="M196,113.3h-1.9v-11.2h2.9l3.4,7l3.4-7h2.9v11.2h-1.9v-8.7l-3.9,7.8h-1.1l-3.9-7.8V113.3z"/>
</g>
<path id="XMLID_8_" class="st7" d="M123.9,175.3h-92c-2.8,0-5-2.2-5-5v-30c0-2.8,2.2-5,5-5h92c2.8,0,5,2.2,5,5v30
	C128.9,173.1,126.6,175.3,123.9,175.3z"/>
<path id="XMLID_9_" class="st8" d="M166.2,298.3H11.9c-2.8,0-5-2.2-5-5v-30c0-2.8,2.2-5,5-5h154.3c2.8,0,5,2.2,5,5v30
	C171.2,296.1,169,298.3,166.2,298.3z"/>
<path id="XMLID_10_" class="st8" d="M344.1,298.3H189.7c-2.8,0-5-2.2-5-5v-30c0-2.8,2.2-5,5-5h154.3c2.8,0,5,2.2,5,5v30
	C349.1,296.1,346.8,298.3,344.1,298.3z"/>
<path id="XMLID_21_" class="st8" d="M521.9,298.3H367.6c-2.8,0-5-2.2-5-5v-30c0-2.8,2.2-5,5-5h154.3c2.8,0,5,2.2,5,5v30
	C526.9,296.1,524.7,298.3,521.9,298.3z"/>
<g id="XMLID_257_">
	<path id="XMLID_258_" class="st5" d="M69,159.8c-1.1,1.1-2.5,1.7-4.2,1.7c-1.7,0-3.1-0.6-4.2-1.7c-1.1-1.1-1.7-2.5-1.7-4.1
		c0-1.6,0.6-3,1.7-4.1c1.1-1.1,2.5-1.7,4.2-1.7c1.7,0,3.1,0.6,4.2,1.7c1.1,1.1,1.7,2.5,1.7,4.1C70.7,157.3,70.2,158.7,69,159.8z
		 M67.6,152.8c-0.8-0.8-1.7-1.2-2.8-1.2c-1.1,0-2,0.4-2.8,1.2c-0.8,0.8-1.1,1.7-1.1,2.9s0.4,2.1,1.1,2.9c0.8,0.8,1.7,1.2,2.8,1.2
		c1.1,0,2-0.4,2.8-1.2s1.1-1.7,1.1-2.9S68.4,153.6,67.6,152.8z"/>
	<path id="XMLID_261_" class="st5" d="M79.3,161.3l-2.8-4.2h-0.1l-2.8,4.2h-2.4l3.8-5.7l-3.6-5.4H74l2.5,3.8h0.1l2.5-3.8h2.3
		l-3.6,5.4l3.8,5.7H79.3z"/>
	<path id="XMLID_263_" class="st5" d="M85.4,161.3h-1.9v-11.2h2.9l3.4,7l3.4-7h2.9v11.2h-1.9v-8.7l-3.9,7.8h-1.1l-3.9-7.8V161.3z"/>
</g>
<path id="XMLID_6_" class="st7" d="M233.9,175.3h-92c-2.8,0-5-2.2-5-5v-30c0-2.8,2.2-5,5-5h92c2.8,0,5,2.2,5,5v30
	C238.9,173.1,236.7,175.3,233.9,175.3z"/>
<g id="XMLID_250_">
	<path id="XMLID_251_" class="st5" d="M172.5,151.8v-1.7h5.4v7.4c0,1.3-0.3,2.3-1,2.9c-0.7,0.7-1.5,1-2.5,1c-1.3,0-2.4-0.5-3.3-1.4
		l1.1-1.5c0.7,0.7,1.4,1,2.1,1c0.5,0,0.9-0.2,1.3-0.5c0.3-0.3,0.5-0.8,0.5-1.5v-5.8H172.5z"/>
	<path id="XMLID_253_" class="st5" d="M182.8,161.3H181v-11.2h2.9l3.4,7l3.4-7h2.9v11.2h-1.9v-8.7l-3.9,7.8h-1.1l-3.9-7.8V161.3z"/>
	<path id="XMLID_255_" class="st5" d="M200.1,151.6c-0.5,0-1,0.1-1.4,0.3s-0.5,0.6-0.5,1c0,0.5,0.2,0.8,0.5,1
		c0.4,0.2,1.1,0.5,2.2,0.8c1.1,0.3,2,0.7,2.6,1.2c0.6,0.5,0.9,1.2,0.9,2.2c0,1-0.4,1.8-1.1,2.4c-0.7,0.6-1.7,0.9-2.9,0.9
		c-1.7,0-3.3-0.6-4.7-1.8l1.2-1.4c1.1,1,2.3,1.5,3.5,1.5c0.6,0,1.1-0.1,1.4-0.4c0.4-0.3,0.5-0.6,0.5-1c0-0.4-0.2-0.8-0.5-1
		c-0.3-0.2-0.9-0.5-1.7-0.7s-1.4-0.4-1.9-0.5c-0.4-0.2-0.8-0.4-1.1-0.6c-0.7-0.5-1-1.3-1-2.3c0-1,0.4-1.8,1.1-2.4
		c0.8-0.6,1.7-0.8,2.8-0.8c0.7,0,1.4,0.1,2.1,0.4c0.7,0.2,1.3,0.6,1.8,1l-1,1.4c-0.3-0.3-0.8-0.5-1.3-0.7
		C201.2,151.7,200.6,151.6,200.1,151.6z"/>
</g>
<rect id="XMLID_26_" x="273.9" y="38" class="st3" width="253" height="206.1"/>
<g id="XMLID_208_">
	<path id="XMLID_209_" class="st6" d="M385.9,76l2-6.4h2.6l2,6.4l2.2-6.4h2.7l-3.9,11.2h-1.9l-2.4-7.8l-2.4,7.8h-1.9L381,69.6h2.7
		L385.9,76z"/>
	<path id="XMLID_211_" class="st6" d="M406.7,69.6v2.2h-5.6v2.3h5v2.1h-5v2.3h5.7v2.2h-8.2V69.6H406.7z"/>
	<path id="XMLID_213_" class="st6" d="M414,80.8h-4.9V69.6h4.4c0.8,0,1.4,0.1,2,0.3c0.5,0.2,1,0.4,1.2,0.7c0.5,0.6,0.8,1.2,0.8,2
		c0,0.9-0.3,1.5-0.8,2c-0.2,0.2-0.3,0.2-0.4,0.3c-0.1,0-0.2,0.1-0.4,0.2c0.7,0.1,1.2,0.5,1.7,0.9c0.4,0.5,0.6,1.1,0.6,1.8
		c0,0.8-0.3,1.5-0.8,2.1C416.7,80.4,415.6,80.8,414,80.8z M411.6,74.1h1.2c0.7,0,1.2-0.1,1.5-0.2s0.5-0.5,0.5-1s-0.2-0.8-0.5-1
		s-0.8-0.2-1.6-0.2h-1.2V74.1z M411.6,78.6h1.7c0.7,0,1.3-0.1,1.6-0.3s0.5-0.5,0.5-1s-0.2-0.9-0.6-1c-0.4-0.2-1-0.2-1.8-0.2h-1.5
		V78.6z"/>
	<path id="XMLID_217_" class="st6" d="M333.9,91.2c-0.4,1.3-0.7,2.5-0.7,3.7s0.2,2.4,0.7,3.7c0.4,1.3,1,2.4,1.6,3.3H333
		c-0.5-0.7-1-1.8-1.4-3.1c-0.4-1.3-0.6-2.6-0.6-3.9s0.2-2.6,0.6-3.9c0.4-1.3,0.9-2.4,1.4-3.1h2.6C334.9,88.8,334.4,89.9,333.9,91.2z
		"/>
	<path id="XMLID_219_" class="st6" d="M347.3,92.9l-3,6.1h-1.5l-3-6.1v7h-2.5V88.8h3.4l2.9,6.1l2.9-6.1h3.4V100h-2.5V92.9z"/>
	<path id="XMLID_221_" class="st6" d="M356.7,95.9l2.8-7.1h2.7l-4.5,11.2h-2.1l-4.5-11.2h2.7L356.7,95.9z"/>
	<path id="XMLID_223_" class="st6" d="M368.7,97.7c1.2,0,2.2-0.5,3-1.5l1.6,1.6c-1.3,1.4-2.8,2.1-4.5,2.1s-3.1-0.5-4.3-1.6
		c-1.1-1.1-1.7-2.5-1.7-4.1c0-1.7,0.6-3,1.7-4.2c1.1-1.1,2.5-1.7,4.2-1.7c1.8,0,3.4,0.7,4.6,2.1l-1.6,1.8c-0.8-1-1.8-1.5-2.9-1.5
		c-0.9,0-1.7,0.3-2.4,0.9c-0.7,0.6-1,1.4-1,2.5s0.3,1.9,0.9,2.5C367.1,97.4,367.8,97.7,368.7,97.7z"/>
	<path id="XMLID_225_" class="st6" d="M381.1,87.1h2.3l-6.7,14.7h-2.3L381.1,87.1z"/>
	<path id="XMLID_227_" class="st6" d="M394.2,92.5c0,1.8-0.7,2.9-2.1,3.5l2.8,4h-3.1l-2.5-3.6h-1.7v3.6h-2.5V88.8h4.2
		c1.7,0,3,0.3,3.7,0.9S394.2,91.2,394.2,92.5z M391.2,93.8c0.3-0.3,0.5-0.7,0.5-1.3s-0.2-1-0.5-1.2s-0.9-0.3-1.7-0.3h-1.9v3.3h1.8
		C390.3,94.2,390.9,94.1,391.2,93.8z"/>
	<path id="XMLID_230_" class="st6" d="M404,98.7c-1,0.9-2.1,1.4-3.4,1.4s-2.4-0.4-3.2-1.2c-0.9-0.8-1.3-1.9-1.3-3.2
		c0-1.4,0.4-2.4,1.3-3.2c0.9-0.8,1.9-1.2,3.1-1.2c1.2,0,2.2,0.4,3,1.1s1.2,1.7,1.2,2.9v1.3h-6.3c0.1,0.5,0.3,0.9,0.7,1.2
		s0.9,0.4,1.4,0.4c0.8,0,1.5-0.3,2.1-0.8L404,98.7z M401.7,93.6c-0.3-0.3-0.7-0.4-1.2-0.4s-0.9,0.1-1.3,0.4s-0.6,0.7-0.7,1.2h3.8
		C402.2,94.3,402,93.9,401.7,93.6z"/>
	<path id="XMLID_233_" class="st6" d="M414.3,95.3v4.6h-2.4v-4.7c0-0.7-0.1-1.2-0.3-1.5s-0.5-0.5-1-0.5s-0.9,0.2-1.2,0.5
		s-0.5,0.9-0.5,1.5v4.6h-2.4v-8.6h2.4v1c0.7-0.7,1.4-1.1,2.3-1.1c0.5,0,1,0.2,1.5,0.5c0.4,0.3,0.8,0.7,1,1.2
		c0.3-0.5,0.8-0.9,1.3-1.2c0.6-0.3,1.1-0.4,1.7-0.4c1,0,1.8,0.3,2.4,0.9c0.6,0.6,0.9,1.5,0.9,2.6v5.2h-2.4v-4.7c0-1.3-0.5-2-1.5-2
		c-0.5,0-0.9,0.2-1.2,0.5C414.5,94.1,414.3,94.6,414.3,95.3z"/>
	<path id="XMLID_235_" class="st6" d="M430.8,95.6c0,1.2-0.4,2.3-1.3,3.2c-0.9,0.9-2,1.3-3.3,1.3s-2.4-0.4-3.3-1.3
		c-0.9-0.9-1.3-1.9-1.3-3.2s0.4-2.3,1.3-3.2s1.9-1.3,3.3-1.3s2.4,0.4,3.3,1.3C430.3,93.3,430.8,94.4,430.8,95.6z M424.1,95.6
		c0,0.7,0.2,1.3,0.6,1.7c0.4,0.4,0.9,0.7,1.5,0.7s1.1-0.2,1.5-0.7c0.4-0.4,0.6-1,0.6-1.7s-0.2-1.3-0.6-1.7c-0.4-0.4-0.9-0.7-1.5-0.7
		s-1.1,0.2-1.5,0.7C424.3,94.4,424.1,94.9,424.1,95.6z"/>
	<path id="XMLID_238_" class="st6" d="M435.2,93.1v3.9c0,0.3,0.1,0.6,0.3,0.8c0.2,0.2,0.4,0.3,0.6,0.3c0.4,0,0.8-0.2,1.1-0.6
		l0.9,1.7c-0.7,0.7-1.5,1-2.4,1c-0.8,0-1.5-0.3-2.1-0.8c-0.6-0.5-0.9-1.3-0.9-2.2v-4h-1v-1.7h1v-2.6h2.4v2.6h2.1v1.7H435.2z"/>
	<path id="XMLID_240_" class="st6" d="M439.6,90.2c-0.3-0.3-0.4-0.6-0.4-1s0.1-0.7,0.4-1c0.3-0.3,0.6-0.4,1-0.4s0.7,0.1,1,0.4
		c0.3,0.3,0.4,0.6,0.4,1s-0.1,0.7-0.4,1c-0.3,0.3-0.6,0.4-1,0.4S439.9,90.5,439.6,90.2z M441.8,100h-2.4v-8.6h2.4V100z"/>
	<path id="XMLID_243_" class="st6" d="M446.5,95.2v4.8h-2.4v-8.6h2.4v1c0.7-0.7,1.5-1.1,2.4-1.1c0.9,0,1.7,0.3,2.3,1
		s0.9,1.5,0.9,2.6v5.2h-2.4v-4.9c0-1.3-0.5-2-1.5-2c-0.5,0-0.9,0.2-1.3,0.5S446.5,94.5,446.5,95.2z"/>
	<path id="XMLID_245_" class="st6" d="M460.7,98.5c-0.8,0.8-1.7,1.3-2.8,1.3s-2.1-0.4-2.8-1.1s-1.2-1.8-1.2-3.1s0.4-2.3,1.2-3.1
		c0.8-0.8,1.7-1.2,2.7-1.2s1.9,0.4,2.5,1.3v-1.1h2.4v7.5c0,0.8-0.1,1.5-0.4,2s-0.6,1.1-1.1,1.4c-0.9,0.7-1.9,1.1-3.1,1.1
		c-0.6,0-1.3-0.1-2-0.3c-0.7-0.2-1.3-0.5-1.8-0.9l0.9-1.8c0.8,0.6,1.6,0.9,2.5,0.9s1.6-0.2,2.1-0.7
		C460.4,100.1,460.7,99.4,460.7,98.5z M460.3,95.5c0-0.7-0.2-1.2-0.6-1.6c-0.4-0.4-0.9-0.6-1.4-0.6s-1.1,0.2-1.5,0.6
		c-0.4,0.4-0.6,0.9-0.6,1.6s0.2,1.2,0.6,1.7c0.4,0.4,0.9,0.6,1.5,0.6c0.6,0,1.1-0.2,1.4-0.6S460.3,96.2,460.3,95.5z"/>
	<path id="XMLID_248_" class="st6" d="M465.9,98.6c0.4-1.3,0.7-2.6,0.7-3.7s-0.2-2.4-0.7-3.7s-1-2.4-1.6-3.4h2.6
		c0.5,0.7,1,1.8,1.4,3.1c0.4,1.3,0.6,2.7,0.6,3.9s-0.2,2.6-0.6,3.9s-0.9,2.4-1.4,3.1h-2.6C464.9,101.1,465.4,100,465.9,98.6z"/>
</g>
<path id="XMLID_20_" class="st7" d="M390.9,175.3h-92c-2.8,0-5-2.2-5-5v-30c0-2.8,2.2-5,5-5h92c2.8,0,5,2.2,5,5v30
	C395.9,173.1,393.6,175.3,390.9,175.3z"/>
<g id="XMLID_199_">
	<path id="XMLID_200_" class="st5" d="M331.2,158.2l2.5-8h1.7l2.5,8l2.8-8h2l-3.9,11.2H337l-2.4-7.7h-0.1l-2.4,7.7h-1.9l-3.9-11.2h2
		L331.2,158.2z"/>
	<path id="XMLID_202_" class="st5" d="M352.2,157.9h-6.7c0,0.6,0.3,1.1,0.8,1.5c0.5,0.4,1.1,0.6,1.8,0.6c1.1,0,1.9-0.3,2.4-1l1,1.1
		c-0.9,0.9-2.1,1.4-3.6,1.4c-1.2,0-2.2-0.4-3-1.2c-0.8-0.8-1.3-1.9-1.3-3.2s0.4-2.4,1.3-3.2c0.9-0.8,1.9-1.2,3-1.2s2.1,0.3,3,1
		s1.2,1.7,1.2,2.9V157.9z M345.5,156.4h4.9c0-0.7-0.2-1.3-0.7-1.6c-0.4-0.4-1-0.6-1.7-0.6c-0.7,0-1.2,0.2-1.8,0.6
		S345.5,155.8,345.5,156.4z"/>
	<path id="XMLID_205_" class="st5" d="M358.7,152.7c1.1,0,2.1,0.4,2.9,1.2c0.8,0.8,1.2,1.8,1.2,3.2c0,1.3-0.4,2.4-1.2,3.2
		s-1.7,1.2-2.8,1.2c-1.1,0-2-0.5-2.9-1.4v1.3h-1.8v-11.9h1.8v4.8C356.6,153.2,357.6,152.7,358.7,152.7z M355.9,157.1
		c0,0.8,0.2,1.5,0.7,2c0.5,0.5,1.1,0.8,1.8,0.8s1.3-0.3,1.8-0.8c0.5-0.5,0.8-1.2,0.8-2c0-0.8-0.3-1.5-0.8-2
		c-0.5-0.5-1.1-0.8-1.8-0.8c-0.7,0-1.3,0.3-1.8,0.8C356.1,155.6,355.9,156.3,355.9,157.1z"/>
</g>
<path id="XMLID_18_" class="st7" d="M500.9,175.3h-92c-2.8,0-5-2.2-5-5v-30c0-2.8,2.2-5,5-5h92c2.8,0,5,2.2,5,5v30
	C505.9,173.1,503.7,175.3,500.9,175.3z"/>
<g id="XMLID_182_">
	<path id="XMLID_183_" class="st5" d="M431.7,151.6c-0.5,0-1,0.1-1.4,0.3c-0.4,0.2-0.5,0.6-0.5,1c0,0.5,0.2,0.8,0.5,1
		c0.4,0.2,1.1,0.5,2.2,0.8s2,0.7,2.6,1.2c0.6,0.5,0.9,1.2,0.9,2.2c0,1-0.4,1.8-1.1,2.4c-0.7,0.6-1.7,0.9-2.9,0.9
		c-1.8,0-3.3-0.6-4.7-1.8l1.2-1.4c1.1,1,2.3,1.5,3.5,1.5c0.6,0,1.1-0.1,1.4-0.4c0.4-0.3,0.5-0.6,0.5-1c0-0.4-0.2-0.8-0.5-1
		c-0.3-0.2-0.9-0.5-1.7-0.7c-0.8-0.2-1.4-0.4-1.9-0.5c-0.4-0.2-0.8-0.4-1.1-0.6c-0.7-0.5-1-1.3-1-2.3c0-1,0.4-1.8,1.1-2.4
		c0.8-0.6,1.7-0.8,2.8-0.8c0.7,0,1.4,0.1,2.1,0.4c0.7,0.2,1.3,0.6,1.8,1l-1,1.4c-0.3-0.3-0.8-0.5-1.3-0.7
		C432.8,151.7,432.2,151.6,431.7,151.6z"/>
	<path id="XMLID_185_" class="st5" d="M446,157.9h-6.7c0,0.6,0.3,1.1,0.8,1.5c0.5,0.4,1.1,0.6,1.8,0.6c1.1,0,1.9-0.3,2.4-1l1,1.1
		c-0.9,0.9-2.1,1.4-3.6,1.4c-1.2,0-2.2-0.4-3-1.2c-0.8-0.8-1.3-1.9-1.3-3.2s0.4-2.4,1.3-3.2c0.9-0.8,1.9-1.2,3-1.2
		c1.2,0,2.1,0.3,3,1s1.2,1.7,1.2,2.9V157.9z M439.3,156.4h4.9c0-0.7-0.2-1.3-0.7-1.6c-0.4-0.4-1-0.6-1.7-0.6c-0.7,0-1.2,0.2-1.8,0.6
		C439.6,155.2,439.3,155.8,439.3,156.4z"/>
	<path id="XMLID_188_" class="st5" d="M452.4,154.5c-0.9,0-1.6,0.3-2,0.9c-0.4,0.6-0.7,1.3-0.7,2.3v3.6H448v-8.5h1.8v1.7
		c0.3-0.5,0.7-1,1.2-1.3c0.5-0.3,1-0.5,1.6-0.5L452.4,154.5C452.5,154.5,452.5,154.5,452.4,154.5z"/>
	<path id="XMLID_190_" class="st5" d="M456.6,161.3l-3.4-8.5h1.9l2.6,6.4l2.6-6.4h1.9l-3.4,8.5H456.6z"/>
	<path id="XMLID_192_" class="st5" d="M465.3,161.3h-1.8v-11.9h1.8V161.3z"/>
	<path id="XMLID_194_" class="st5" d="M475.8,157.9h-6.7c0,0.6,0.3,1.1,0.8,1.5c0.5,0.4,1.1,0.6,1.8,0.6c1.1,0,1.9-0.3,2.4-1l1,1.1
		c-0.9,0.9-2.1,1.4-3.6,1.4c-1.2,0-2.2-0.4-3-1.2c-0.8-0.8-1.3-1.9-1.3-3.2s0.4-2.4,1.3-3.2c0.9-0.8,1.9-1.2,3-1.2s2.1,0.3,3,1
		s1.2,1.7,1.2,2.9V157.9z M469.1,156.4h4.9c0-0.7-0.2-1.3-0.7-1.6c-0.4-0.4-1-0.6-1.7-0.6s-1.2,0.2-1.8,0.6
		C469.4,155.2,469.1,155.8,469.1,156.4z"/>
	<path id="XMLID_197_" class="st5" d="M479.9,154.3v4.3c0,0.4,0.1,0.7,0.3,1c0.2,0.2,0.5,0.4,0.9,0.4c0.4,0,0.8-0.2,1.1-0.6l0.7,1.3
		c-0.6,0.6-1.3,0.8-2.1,0.8c-0.8,0-1.4-0.3-2-0.8c-0.5-0.5-0.8-1.2-0.8-2.1v-4.3H477v-1.4h1.1v-2.7h1.8v2.7h2.2v1.4H479.9z"/>
</g>
<path id="XMLID_16_" class="st7" d="M390.9,223.7h-92c-2.8,0-5-2.2-5-5v-30c0-2.8,2.2-5,5-5h92c2.8,0,5,2.2,5,5v30
	C395.9,221.4,393.6,223.7,390.9,223.7z"/>
<g id="XMLID_164_">
	<path id="XMLID_165_" class="st5" d="M326.4,199.5c0.8,0.7,1.2,1.7,1.2,3s-0.4,2.3-1.2,3c-0.8,0.6-2,0.9-3.7,0.9h-2v3.3h-1.9v-11.2
		h3.8C324.4,198.5,325.6,198.8,326.4,199.5z M325,204.1c0.4-0.4,0.6-1,0.6-1.8s-0.2-1.3-0.7-1.6c-0.5-0.3-1.2-0.5-2.3-0.5h-1.9v4.5
		h2.2C324,204.7,324.7,204.5,325,204.1z"/>
	<path id="XMLID_168_" class="st5" d="M336.5,208.5c-0.9,0.8-1.9,1.3-3.2,1.3c-1.3,0-2.3-0.4-3.2-1.3c-0.9-0.8-1.3-1.9-1.3-3.1
		s0.4-2.3,1.3-3.1c0.9-0.8,1.9-1.3,3.2-1.3c1.3,0,2.3,0.4,3.2,1.3c0.9,0.8,1.3,1.9,1.3,3.1S337.4,207.7,336.5,208.5z M331.4,207.4
		c0.5,0.5,1.1,0.8,1.9,0.8c0.8,0,1.4-0.3,1.9-0.8c0.5-0.5,0.8-1.2,0.8-2s-0.3-1.5-0.8-2c-0.5-0.5-1.1-0.8-1.9-0.8
		c-0.8,0-1.4,0.3-1.9,0.8s-0.8,1.2-0.8,2S330.9,206.9,331.4,207.4z"/>
	<path id="XMLID_171_" class="st5" d="M344.3,202.8c-0.9,0-1.6,0.3-2,0.9c-0.4,0.6-0.7,1.3-0.7,2.3v3.6h-1.8v-8.5h1.8v1.7
		c0.3-0.5,0.7-1,1.2-1.3c0.5-0.3,1-0.5,1.6-0.5L344.3,202.8C344.4,202.8,344.4,202.8,344.3,202.8z"/>
	<path id="XMLID_173_" class="st5" d="M348.4,202.6v4.3c0,0.4,0.1,0.7,0.3,1c0.2,0.2,0.5,0.4,0.9,0.4c0.4,0,0.8-0.2,1.1-0.6l0.7,1.3
		c-0.6,0.6-1.3,0.8-2.1,0.8c-0.8,0-1.4-0.3-2-0.8c-0.5-0.5-0.8-1.2-0.8-2.1v-4.3h-1.1v-1.4h1.1v-2.7h1.8v2.7h2.2v1.4H348.4z"/>
	<path id="XMLID_175_" class="st5" d="M354.7,209.7h-1.8v-11.9h1.8V209.7z"/>
	<path id="XMLID_177_" class="st5" d="M365.2,206.2h-6.7c0,0.6,0.3,1.1,0.8,1.5c0.5,0.4,1.1,0.6,1.8,0.6c1.1,0,1.9-0.3,2.4-1l1,1.1
		c-0.9,0.9-2.1,1.4-3.6,1.4c-1.2,0-2.2-0.4-3-1.2c-0.8-0.8-1.3-1.9-1.3-3.2s0.4-2.4,1.3-3.2c0.9-0.8,1.9-1.2,3-1.2s2.1,0.3,3,1
		s1.2,1.7,1.2,2.9V206.2z M358.5,204.8h4.9c0-0.7-0.2-1.3-0.7-1.6c-0.4-0.4-1-0.6-1.7-0.6c-0.7,0-1.2,0.2-1.8,0.6
		S358.5,204.1,358.5,204.8z"/>
	<path id="XMLID_180_" class="st5" d="M369.3,202.6v4.3c0,0.4,0.1,0.7,0.3,1c0.2,0.2,0.5,0.4,0.9,0.4c0.4,0,0.8-0.2,1.1-0.6l0.7,1.3
		c-0.6,0.6-1.3,0.8-2.1,0.8c-0.8,0-1.4-0.3-2-0.8c-0.5-0.5-0.8-1.2-0.8-2.1v-4.3h-1.1v-1.4h1.1v-2.7h1.8v2.7h2.2v1.4H369.3z"/>
</g>
<path id="XMLID_14_" class="st7" d="M500.9,223.7h-92c-2.8,0-5-2.2-5-5v-30c0-2.8,2.2-5,5-5h92c2.8,0,5,2.2,5,5v30
	C505.9,221.4,503.7,223.7,500.9,223.7z"/>
<g id="XMLID_151_">
	<path id="XMLID_152_" class="st5" d="M435.8,200c-0.5,0-1,0.1-1.4,0.3s-0.5,0.6-0.5,1c0,0.5,0.2,0.8,0.5,1c0.4,0.2,1.1,0.5,2.2,0.8
		s2,0.7,2.6,1.2c0.6,0.5,0.9,1.2,0.9,2.2c0,1-0.4,1.8-1.1,2.4c-0.7,0.6-1.7,0.9-2.9,0.9c-1.7,0-3.3-0.6-4.7-1.8l1.2-1.4
		c1.1,1,2.3,1.5,3.5,1.5c0.6,0,1.1-0.1,1.4-0.4c0.4-0.3,0.5-0.6,0.5-1c0-0.4-0.2-0.8-0.5-1c-0.3-0.2-0.9-0.5-1.7-0.7
		s-1.4-0.4-1.9-0.5c-0.4-0.2-0.8-0.4-1.1-0.6c-0.7-0.5-1-1.3-1-2.3c0-1,0.4-1.8,1.1-2.4c0.8-0.6,1.7-0.8,2.8-0.8
		c0.7,0,1.4,0.1,2.1,0.4c0.7,0.2,1.3,0.6,1.8,1l-1,1.4c-0.3-0.3-0.8-0.5-1.3-0.7C436.9,200,436.4,200,435.8,200z"/>
	<path id="XMLID_154_" class="st5" d="M444.3,202.6v4.3c0,0.4,0.1,0.7,0.3,1c0.2,0.2,0.5,0.4,0.9,0.4c0.4,0,0.8-0.2,1.1-0.6l0.7,1.3
		c-0.6,0.6-1.3,0.8-2.1,0.8c-0.8,0-1.4-0.3-2-0.8c-0.5-0.5-0.8-1.2-0.8-2.1v-4.3h-1.1v-1.4h1.1v-2.7h1.8v2.7h2.2v1.4H444.3z"/>
	<path id="XMLID_156_" class="st5" d="M453.2,202.8c-0.9,0-1.6,0.3-2,0.9c-0.4,0.6-0.7,1.3-0.7,2.3v3.6h-1.8v-8.5h1.8v1.7
		c0.3-0.5,0.7-1,1.2-1.3c0.5-0.3,1-0.5,1.6-0.5L453.2,202.8C453.3,202.8,453.2,202.8,453.2,202.8z"/>
	<path id="XMLID_158_" class="st5" d="M461.1,205.8v-4.6h1.8v8.5h-1.8v-1.6c-0.3,0.5-0.7,0.9-1.2,1.2c-0.5,0.3-1.1,0.4-1.6,0.4
		c-1,0-1.7-0.3-2.3-0.9s-0.9-1.4-0.9-2.5v-5.2h1.8v4.7c0,1.6,0.7,2.4,2,2.4c0.6,0,1.2-0.2,1.6-0.6
		C460.8,207.1,461.1,206.5,461.1,205.8z"/>
	<path id="XMLID_160_" class="st5" d="M467.6,202.6v4.3c0,0.4,0.1,0.7,0.3,1c0.2,0.2,0.5,0.4,0.9,0.4c0.4,0,0.8-0.2,1.1-0.6l0.7,1.3
		c-0.6,0.6-1.3,0.8-2.1,0.8c-0.8,0-1.4-0.3-2-0.8c-0.5-0.5-0.8-1.2-0.8-2.1v-4.3h-1.1v-1.4h1.1v-2.7h1.8v2.7h2.2v1.4H467.6z"/>
	<path id="XMLID_162_" class="st5" d="M478.2,207.1c0,0.8-0.3,1.5-0.9,1.9c-0.6,0.5-1.3,0.7-2.3,0.7c-0.6,0-1.3-0.1-1.9-0.3
		c-0.7-0.2-1.3-0.5-1.8-0.9l0.9-1.4c1,0.7,2,1.1,2.9,1.1c0.4,0,0.7-0.1,1-0.3s0.4-0.4,0.4-0.7c0-0.4-0.6-0.8-1.7-1.2
		c-0.1,0-0.2-0.1-0.2-0.1c-1.8-0.5-2.7-1.3-2.7-2.4c0-0.8,0.3-1.4,0.9-1.9s1.4-0.7,2.4-0.7s1.9,0.3,2.8,0.9l-0.7,1.3
		c-0.7-0.5-1.4-0.7-2.3-0.7c-0.4,0-0.8,0.1-1,0.2c-0.3,0.2-0.4,0.4-0.4,0.7c0,0.3,0.1,0.5,0.4,0.6c0.2,0.1,0.5,0.2,0.8,0.3
		c0.3,0.1,0.7,0.2,0.9,0.3c0.3,0.1,0.5,0.2,0.8,0.3s0.5,0.3,0.8,0.4C477.9,205.7,478.2,206.3,478.2,207.1z"/>
</g>
<path id="XMLID_12_" class="st7" d="M233.9,223.7h-202c-2.8,0-5-2.2-5-5v-30c0-2.8,2.2-5,5-5h202c2.8,0,5,2.2,5,5v30
	C238.9,221.4,236.7,223.7,233.9,223.7z"/>
<g id="XMLID_122_">
	<path id="XMLID_123_" class="st5" d="M87.5,200.2v9.5h-1.9v-9.5h-3.4v-1.7h8.7v1.7H87.5z"/>
	<path id="XMLID_125_" class="st5" d="M97.2,202.8c-0.9,0-1.6,0.3-2,0.9c-0.4,0.6-0.7,1.3-0.7,2.3v3.6h-1.8v-8.5h1.8v1.7
		c0.3-0.5,0.7-1,1.2-1.3c0.5-0.3,1-0.5,1.6-0.5L97.2,202.8C97.2,202.8,97.2,202.8,97.2,202.8z"/>
	<path id="XMLID_127_" class="st5" d="M105.9,209.7h-1.6v-1.1c-0.7,0.8-1.6,1.3-2.8,1.3c-0.9,0-1.6-0.3-2.2-0.8
		c-0.6-0.5-0.9-1.2-0.9-2c0-0.8,0.3-1.5,0.9-1.9s1.5-0.6,2.5-0.6h2.3v-0.3c0-1.1-0.6-1.7-1.9-1.7c-0.8,0-1.6,0.3-2.5,0.9l-0.8-1.1
		c1-0.8,2.2-1.2,3.5-1.2c1,0,1.8,0.3,2.5,0.8c0.6,0.5,1,1.3,1,2.4V209.7z M104.1,206.5v-0.7h-2c-1.3,0-1.9,0.4-1.9,1.2
		c0,0.4,0.2,0.7,0.5,1c0.3,0.2,0.8,0.3,1.3,0.3c0.6,0,1.1-0.2,1.5-0.5S104.1,207,104.1,206.5z"/>
	<path id="XMLID_130_" class="st5" d="M110.2,205.1v4.6h-1.8v-8.5h1.8v1.6c0.3-0.5,0.7-0.9,1.2-1.2c0.5-0.3,1.1-0.4,1.6-0.4
		c1,0,1.7,0.3,2.3,0.9c0.6,0.6,0.9,1.4,0.9,2.5v5.2h-1.8V205c0-1.6-0.7-2.4-2-2.4c-0.6,0-1.2,0.2-1.6,0.6
		C110.4,203.7,110.2,204.3,110.2,205.1z"/>
	<path id="XMLID_132_" class="st5" d="M124.8,207.1c0,0.8-0.3,1.5-0.9,1.9c-0.6,0.5-1.3,0.7-2.3,0.7c-0.6,0-1.3-0.1-1.9-0.3
		s-1.3-0.5-1.8-0.9l0.9-1.4c1,0.7,2,1.1,2.9,1.1c0.4,0,0.7-0.1,1-0.3c0.2-0.2,0.4-0.4,0.4-0.7c0-0.4-0.6-0.8-1.7-1.2
		c-0.1,0-0.1-0.1-0.2-0.1c-1.8-0.5-2.7-1.3-2.7-2.4c0-0.8,0.3-1.4,0.9-1.9s1.4-0.7,2.4-0.7c1,0,1.9,0.3,2.8,0.9l-0.7,1.3
		c-0.7-0.5-1.4-0.7-2.3-0.7c-0.4,0-0.8,0.1-1,0.2c-0.3,0.2-0.4,0.4-0.4,0.7c0,0.3,0.1,0.5,0.4,0.6c0.2,0.1,0.5,0.2,0.8,0.3
		c0.3,0.1,0.7,0.2,0.9,0.3c0.3,0.1,0.5,0.2,0.8,0.3c0.3,0.1,0.5,0.3,0.8,0.4C124.5,205.7,124.8,206.3,124.8,207.1z"/>
	<path id="XMLID_134_" class="st5" d="M133.7,209.7h-1.6v-1.1c-0.7,0.8-1.6,1.3-2.8,1.3c-0.9,0-1.6-0.3-2.2-0.8
		c-0.6-0.5-0.9-1.2-0.9-2c0-0.8,0.3-1.5,0.9-1.9s1.5-0.6,2.5-0.6h2.3v-0.3c0-1.1-0.6-1.7-1.9-1.7c-0.8,0-1.6,0.3-2.5,0.9l-0.8-1.1
		c1-0.8,2.2-1.2,3.5-1.2c1,0,1.8,0.3,2.5,0.8c0.6,0.5,1,1.3,1,2.4V209.7z M131.9,206.5v-0.7h-2c-1.3,0-1.9,0.4-1.9,1.2
		c0,0.4,0.2,0.7,0.5,1c0.3,0.2,0.8,0.3,1.3,0.3c0.6,0,1.1-0.2,1.5-0.5S131.9,207,131.9,206.5z"/>
	<path id="XMLID_137_" class="st5" d="M140,209.8c-1.2,0-2.2-0.4-3.1-1.2c-0.9-0.8-1.3-1.9-1.3-3.2c0-1.3,0.4-2.4,1.3-3.2
		s2-1.2,3.3-1.2c1.3,0,2.4,0.4,3.2,1.3l-1.1,1.3c-0.7-0.6-1.5-1-2.2-1s-1.4,0.2-1.9,0.7c-0.5,0.5-0.8,1.1-0.8,1.9
		c0,0.8,0.3,1.4,0.8,2c0.5,0.5,1.2,0.8,2,0.8c0.8,0,1.5-0.4,2.2-1.1l1.1,1.2C142.5,209.3,141.3,209.8,140,209.8z"/>
	<path id="XMLID_139_" class="st5" d="M147.6,202.6v4.3c0,0.4,0.1,0.7,0.3,1c0.2,0.2,0.5,0.4,0.9,0.4c0.4,0,0.8-0.2,1.1-0.6l0.7,1.3
		c-0.6,0.6-1.3,0.8-2.1,0.8c-0.8,0-1.4-0.3-2-0.8s-0.8-1.2-0.8-2.1v-4.3h-1.1v-1.4h1.1v-2.7h1.8v2.7h2.2v1.4H147.6z"/>
	<path id="XMLID_141_" class="st5" d="M152.2,199.5c-0.2-0.2-0.3-0.5-0.3-0.8s0.1-0.6,0.3-0.8c0.2-0.2,0.5-0.3,0.8-0.3
		c0.3,0,0.6,0.1,0.8,0.3c0.2,0.2,0.3,0.5,0.3,0.8s-0.1,0.6-0.3,0.8c-0.2,0.2-0.5,0.3-0.8,0.3C152.7,199.8,152.4,199.7,152.2,199.5z
		 M153.9,209.7h-1.8v-8.5h1.8V209.7z"/>
	<path id="XMLID_144_" class="st5" d="M163.6,208.5c-0.9,0.8-1.9,1.3-3.2,1.3c-1.3,0-2.3-0.4-3.2-1.3c-0.9-0.8-1.3-1.9-1.3-3.1
		s0.4-2.3,1.3-3.1c0.9-0.8,1.9-1.3,3.2-1.3c1.3,0,2.3,0.4,3.2,1.3c0.9,0.8,1.3,1.9,1.3,3.1S164.5,207.7,163.6,208.5z M158.5,207.4
		c0.5,0.5,1.1,0.8,1.9,0.8s1.4-0.3,1.9-0.8c0.5-0.5,0.8-1.2,0.8-2s-0.3-1.5-0.8-2c-0.5-0.5-1.1-0.8-1.9-0.8s-1.4,0.3-1.9,0.8
		c-0.5,0.5-0.8,1.2-0.8,2S158,206.9,158.5,207.4z"/>
	<path id="XMLID_147_" class="st5" d="M168.7,205.1v4.6h-1.8v-8.5h1.8v1.6c0.3-0.5,0.7-0.9,1.2-1.2c0.5-0.3,1.1-0.4,1.6-0.4
		c1,0,1.7,0.3,2.3,0.9c0.6,0.6,0.9,1.4,0.9,2.5v5.2H173V205c0-1.6-0.7-2.4-2-2.4c-0.6,0-1.2,0.2-1.6,0.6
		C168.9,203.7,168.7,204.3,168.7,205.1z"/>
	<path id="XMLID_149_" class="st5" d="M183.3,207.1c0,0.8-0.3,1.5-0.9,1.9c-0.6,0.5-1.3,0.7-2.3,0.7c-0.6,0-1.3-0.1-1.9-0.3
		s-1.3-0.5-1.8-0.9l0.9-1.4c1,0.7,2,1.1,2.9,1.1c0.4,0,0.7-0.1,1-0.3c0.2-0.2,0.4-0.4,0.4-0.7c0-0.4-0.6-0.8-1.7-1.2
		c-0.1,0-0.1-0.1-0.2-0.1c-1.8-0.5-2.7-1.3-2.7-2.4c0-0.8,0.3-1.4,0.9-1.9s1.4-0.7,2.4-0.7c1,0,1.9,0.3,2.8,0.9l-0.7,1.3
		c-0.7-0.5-1.4-0.7-2.3-0.7c-0.4,0-0.8,0.1-1,0.2c-0.3,0.2-0.4,0.4-0.4,0.7c0,0.3,0.1,0.5,0.4,0.6c0.2,0.1,0.5,0.2,0.8,0.3
		c0.3,0.1,0.7,0.2,0.9,0.3c0.3,0.1,0.5,0.2,0.8,0.3c0.3,0.1,0.5,0.3,0.8,0.4C183,205.7,183.3,206.3,183.3,207.1z"/>
</g>
<rect id="XMLID_42_" x="6.9" y="454.3" class="st3" width="520" height="40"/>
<g id="XMLID_112_">
	<g id="XMLID_580_">
		<path id="XMLID_588_" class="st6" d="M255.6,471.3v9h-2.5v-9h-3.2v-2.2h8.8v2.2H255.6z"/>
		<path id="XMLID_585_" class="st6" d="M267.8,479.1c-1,0.9-2.1,1.4-3.4,1.4s-2.4-0.4-3.2-1.2c-0.9-0.8-1.3-1.9-1.3-3.2
			c0-1.4,0.4-2.4,1.3-3.2c0.9-0.8,1.9-1.2,3.1-1.2s2.2,0.4,3,1.1c0.8,0.7,1.2,1.7,1.2,2.9v1.3h-6.3c0.1,0.5,0.3,0.9,0.7,1.2
			c0.4,0.3,0.9,0.4,1.4,0.4c0.8,0,1.5-0.3,2.1-0.8L267.8,479.1z M265.5,474c-0.3-0.3-0.7-0.4-1.2-0.4s-0.9,0.1-1.3,0.4
			s-0.6,0.7-0.7,1.2h3.8C266,474.6,265.8,474.3,265.5,474z"/>
		<path id="XMLID_583_" class="st6" d="M276.7,477.6c0,0.8-0.3,1.5-0.9,2c-0.6,0.5-1.4,0.8-2.4,0.8c-0.6,0-1.3-0.1-2-0.3
			s-1.3-0.6-1.9-1l1.1-1.5c0.9,0.7,1.9,1,2.9,1c0.3,0,0.6-0.1,0.7-0.2c0.2-0.1,0.3-0.3,0.3-0.5c0-0.2-0.1-0.4-0.4-0.6
			c-0.3-0.2-0.6-0.3-1.1-0.5s-0.8-0.3-1.1-0.4s-0.5-0.3-0.9-0.5c-0.7-0.4-1-1-1-1.8c0-0.8,0.3-1.4,1-1.9c0.6-0.5,1.5-0.8,2.5-0.8
			c1,0,2,0.3,3,1l-0.9,1.6c-0.7-0.5-1.5-0.8-2.2-0.8c-0.7,0-1.1,0.2-1.1,0.6c0,0.2,0.1,0.4,0.4,0.5c0.2,0.1,0.6,0.3,1.2,0.4
			c0.5,0.2,0.9,0.3,1.2,0.4s0.5,0.2,0.8,0.4C276.4,476.2,276.7,476.8,276.7,477.6z"/>
		<path id="XMLID_581_" class="st6" d="M281.3,473.4v3.9c0,0.3,0.1,0.6,0.3,0.8c0.2,0.2,0.4,0.3,0.6,0.3c0.4,0,0.8-0.2,1.1-0.6
			l0.9,1.7c-0.7,0.7-1.5,1-2.4,1c-0.8,0-1.5-0.3-2.1-0.8c-0.6-0.5-0.9-1.3-0.9-2.2v-4h-1v-1.7h1v-2.6h2.4v2.6h2.1v1.7H281.3z"/>
	</g>
</g>
<g id="XMLID_102_">
	<path id="XMLID_103_" class="st5" d="M74.3,281.1l-1.1,2.5h-2l4.9-11.2h2l4.9,11.2h-2l-1.1-2.5H74.3z M79.1,279.4l-2-4.6l-2,4.6
		H79.1z"/>
	<path id="XMLID_106_" class="st5" d="M93.6,282.1c-1.1,1.1-2.5,1.7-4.2,1.7c-1.7,0-3.1-0.6-4.2-1.7c-1.1-1.1-1.7-2.5-1.7-4.1
		c0-1.6,0.6-3,1.7-4.1c1.1-1.1,2.5-1.7,4.2-1.7c1.7,0,3.1,0.6,4.2,1.7c1.1,1.1,1.7,2.5,1.7,4.1C95.3,279.6,94.7,281,93.6,282.1z
		 M92.2,275.1c-0.8-0.8-1.7-1.2-2.8-1.2c-1.1,0-2,0.4-2.8,1.2c-0.8,0.8-1.1,1.7-1.1,2.9s0.4,2.1,1.1,2.9c0.8,0.8,1.7,1.2,2.8,1.2
		c1.1,0,2-0.4,2.8-1.2s1.1-1.7,1.1-2.9S93,275.9,92.2,275.1z"/>
	<path id="XMLID_109_" class="st5" d="M105.2,273.5c0.8,0.7,1.2,1.7,1.2,3s-0.4,2.3-1.2,3c-0.8,0.6-2,0.9-3.7,0.9h-2v3.3h-1.9v-11.2
		h3.8C103.2,272.5,104.5,272.8,105.2,273.5z M103.9,278.1c0.4-0.4,0.6-1,0.6-1.8s-0.2-1.3-0.7-1.6c-0.5-0.3-1.2-0.5-2.3-0.5h-1.9
		v4.5h2.2C102.8,278.7,103.5,278.5,103.9,278.1z"/>
</g>
<g id="XMLID_84_">
	<path id="XMLID_85_" class="st5" d="M237.7,281.1l-1.1,2.5h-2l4.9-11.2h2l4.9,11.2h-2l-1.1-2.5H237.7z M242.6,279.4l-2-4.6l-2,4.6
		H242.6z"/>
	<path id="XMLID_88_" class="st5" d="M253.8,281.1c0,0.8-0.3,1.5-0.9,1.9c-0.6,0.5-1.3,0.7-2.3,0.7c-0.6,0-1.3-0.1-1.9-0.3
		s-1.3-0.5-1.8-0.9l0.9-1.4c1,0.7,2,1.1,2.9,1.1c0.4,0,0.7-0.1,1-0.3c0.2-0.2,0.4-0.4,0.4-0.7c0-0.4-0.6-0.8-1.7-1.2
		c-0.1,0-0.1-0.1-0.2-0.1c-1.8-0.5-2.7-1.3-2.7-2.4c0-0.8,0.3-1.4,0.9-1.9s1.4-0.7,2.4-0.7c1,0,1.9,0.3,2.8,0.9l-0.7,1.3
		c-0.7-0.5-1.4-0.7-2.3-0.7c-0.4,0-0.8,0.1-1,0.2c-0.3,0.2-0.4,0.4-0.4,0.7c0,0.3,0.1,0.5,0.4,0.6c0.2,0.1,0.5,0.2,0.8,0.3
		c0.3,0.1,0.7,0.2,0.9,0.3c0.3,0.1,0.5,0.2,0.8,0.3c0.3,0.1,0.5,0.3,0.8,0.4C253.5,279.7,253.8,280.3,253.8,281.1z"/>
	<path id="XMLID_90_" class="st5" d="M260.4,275c1.1,0,2.1,0.4,2.9,1.2c0.8,0.8,1.2,1.8,1.2,3.2c0,1.3-0.4,2.4-1.2,3.2
		c-0.8,0.8-1.7,1.2-2.8,1.2c-1.1,0-2-0.5-2.9-1.4v4.4h-1.8v-11.6h1.8v1.5C258.4,275.6,259.3,275,260.4,275z M257.6,279.4
		c0,0.8,0.2,1.5,0.7,2s1.1,0.8,1.8,0.8s1.3-0.3,1.8-0.8c0.5-0.5,0.8-1.2,0.8-2c0-0.8-0.3-1.5-0.8-2c-0.5-0.5-1.1-0.8-1.8-0.8
		c-0.7,0-1.3,0.3-1.8,0.8C257.9,277.9,257.6,278.6,257.6,279.4z"/>
	<path id="XMLID_93_" class="st5" d="M274.5,280.2h-6.7c0,0.6,0.3,1.1,0.8,1.5c0.5,0.4,1.1,0.6,1.8,0.6c1.1,0,1.9-0.3,2.4-1l1,1.1
		c-0.9,0.9-2.1,1.4-3.6,1.4c-1.2,0-2.2-0.4-3-1.2c-0.8-0.8-1.3-1.9-1.3-3.2s0.4-2.4,1.3-3.2c0.9-0.8,1.9-1.2,3-1.2s2.1,0.3,3,1
		s1.2,1.7,1.2,2.9V280.2z M267.9,278.8h4.9c0-0.7-0.2-1.3-0.7-1.6c-0.4-0.4-1-0.6-1.7-0.6c-0.7,0-1.2,0.2-1.8,0.6
		S267.9,278.1,267.9,278.8z"/>
	<path id="XMLID_96_" class="st5" d="M280.3,283.8c-1.2,0-2.2-0.4-3.1-1.2c-0.9-0.8-1.3-1.9-1.3-3.2c0-1.3,0.4-2.4,1.3-3.2
		s2-1.2,3.3-1.2s2.4,0.4,3.2,1.3l-1.1,1.3c-0.7-0.6-1.5-1-2.2-1c-0.7,0-1.4,0.2-1.9,0.7c-0.5,0.5-0.8,1.1-0.8,1.9
		c0,0.8,0.3,1.4,0.8,2c0.5,0.5,1.2,0.8,2,0.8c0.8,0,1.5-0.4,2.2-1.1l1.1,1.2C282.8,283.3,281.6,283.8,280.3,283.8z"/>
	<path id="XMLID_98_" class="st5" d="M287.9,276.6v4.3c0,0.4,0.1,0.7,0.3,1c0.2,0.2,0.5,0.4,0.9,0.4c0.4,0,0.8-0.2,1.1-0.6l0.7,1.3
		c-0.6,0.6-1.3,0.8-2.1,0.8c-0.8,0-1.4-0.3-2-0.8c-0.5-0.5-0.8-1.2-0.8-2.1v-4.3h-1.1v-1.4h1.1v-2.7h1.8v2.7h2.2v1.4H287.9z"/>
	<path id="XMLID_100_" class="st5" d="M298.5,281.1c0,0.8-0.3,1.5-0.9,1.9s-1.3,0.7-2.3,0.7c-0.6,0-1.3-0.1-1.9-0.3
		c-0.7-0.2-1.3-0.5-1.8-0.9l0.9-1.4c1,0.7,2,1.1,2.9,1.1c0.4,0,0.7-0.1,1-0.3s0.4-0.4,0.4-0.7c0-0.4-0.6-0.8-1.7-1.2
		c-0.1,0-0.1-0.1-0.2-0.1c-1.8-0.5-2.7-1.3-2.7-2.4c0-0.8,0.3-1.4,0.9-1.9s1.4-0.7,2.4-0.7s1.9,0.3,2.8,0.9l-0.7,1.3
		c-0.7-0.5-1.4-0.7-2.3-0.7c-0.4,0-0.8,0.1-1,0.2c-0.3,0.2-0.4,0.4-0.4,0.7c0,0.3,0.1,0.5,0.4,0.6c0.2,0.1,0.5,0.2,0.8,0.3
		c0.3,0.1,0.7,0.2,0.9,0.3c0.3,0.1,0.5,0.2,0.8,0.3s0.5,0.3,0.8,0.4C298.2,279.7,298.5,280.3,298.5,281.1z"/>
</g>
<g id="XMLID_1_">
	<path id="XMLID_43_" class="st5" d="M380.8,272.5h1.9v11.2h-1.9V272.5z"/>
	<path id="XMLID_45_" class="st5" d="M387.3,279.1v4.6h-1.8v-8.5h1.8v1.6c0.3-0.5,0.7-0.9,1.2-1.2c0.5-0.3,1.1-0.4,1.6-0.4
		c1,0,1.7,0.3,2.3,0.9s0.9,1.4,0.9,2.5v5.2h-1.8V279c0-1.6-0.7-2.4-2-2.4c-0.6,0-1.2,0.2-1.6,0.6
		C387.5,277.7,387.3,278.3,387.3,279.1z"/>
	<path id="XMLID_47_" class="st5" d="M401.9,281.1c0,0.8-0.3,1.5-0.9,1.9c-0.6,0.5-1.3,0.7-2.3,0.7c-0.6,0-1.3-0.1-1.9-0.3
		c-0.7-0.2-1.3-0.5-1.8-0.9l0.9-1.4c1,0.7,2,1.1,2.9,1.1c0.4,0,0.7-0.1,1-0.3c0.2-0.2,0.4-0.4,0.4-0.7c0-0.4-0.6-0.8-1.7-1.2
		c-0.1,0-0.2-0.1-0.2-0.1c-1.8-0.5-2.7-1.3-2.7-2.4c0-0.8,0.3-1.4,0.9-1.9s1.4-0.7,2.4-0.7c1,0,1.9,0.3,2.8,0.9l-0.7,1.3
		c-0.7-0.5-1.4-0.7-2.3-0.7c-0.4,0-0.8,0.1-1,0.2c-0.3,0.2-0.4,0.4-0.4,0.7c0,0.3,0.1,0.5,0.4,0.6c0.2,0.1,0.5,0.2,0.8,0.3
		c0.3,0.1,0.7,0.2,0.9,0.3c0.3,0.1,0.5,0.2,0.8,0.3c0.3,0.1,0.5,0.3,0.8,0.4C401.6,279.7,401.9,280.3,401.9,281.1z"/>
	<path id="XMLID_49_" class="st5" d="M406.1,276.6v4.3c0,0.4,0.1,0.7,0.3,1c0.2,0.2,0.5,0.4,0.9,0.4c0.4,0,0.8-0.2,1.1-0.6l0.7,1.3
		c-0.6,0.6-1.3,0.8-2.1,0.8c-0.8,0-1.4-0.3-2-0.8c-0.5-0.5-0.8-1.2-0.8-2.1v-4.3h-1.1v-1.4h1.1v-2.7h1.8v2.7h2.2v1.4H406.1z"/>
	<path id="XMLID_51_" class="st5" d="M415.1,276.8c-0.9,0-1.6,0.3-2,0.9c-0.4,0.6-0.7,1.3-0.7,2.3v3.6h-1.8v-8.5h1.8v1.7
		c0.3-0.5,0.7-1,1.2-1.3c0.5-0.3,1-0.5,1.6-0.5L415.1,276.8C415.1,276.8,415.1,276.8,415.1,276.8z"/>
	<path id="XMLID_55_" class="st5" d="M422.9,279.8v-4.6h1.8v8.5h-1.8v-1.6c-0.3,0.5-0.7,0.9-1.2,1.2c-0.5,0.3-1.1,0.4-1.6,0.4
		c-1,0-1.7-0.3-2.3-0.9c-0.6-0.6-0.9-1.4-0.9-2.5v-5.2h1.8v4.7c0,1.6,0.7,2.4,2,2.4c0.6,0,1.2-0.2,1.6-0.6
		C422.7,281.1,422.9,280.5,422.9,279.8z"/>
	<path id="XMLID_59_" class="st5" d="M429.1,279.1v4.6h-1.8v-8.5h1.8v1.6c0.3-0.5,0.6-0.9,1.2-1.2c0.5-0.3,1.1-0.4,1.7-0.4
		c1.3,0,2.3,0.6,2.7,1.7c0.8-1.1,1.9-1.7,3.2-1.7c1,0,1.7,0.3,2.3,0.9c0.6,0.6,0.9,1.4,0.9,2.5v5.2h-1.8V279c0-1.6-0.7-2.4-2-2.4
		c-0.6,0-1.1,0.2-1.6,0.6c-0.5,0.4-0.7,1-0.7,1.7v4.7h-1.8V279c0-0.8-0.1-1.4-0.4-1.8s-0.7-0.6-1.4-0.6c-0.6,0-1.2,0.2-1.6,0.6
		C429.3,277.7,429.1,278.3,429.1,279.1z"/>
	<path id="XMLID_61_" class="st5" d="M451.4,280.2h-6.7c0,0.6,0.3,1.1,0.8,1.5c0.5,0.4,1.1,0.6,1.8,0.6c1.1,0,1.9-0.3,2.4-1l1,1.1
		c-0.9,0.9-2.1,1.4-3.6,1.4c-1.2,0-2.2-0.4-3-1.2c-0.8-0.8-1.3-1.9-1.3-3.2s0.4-2.4,1.3-3.2c0.9-0.8,1.9-1.2,3-1.2s2.1,0.3,3,1
		s1.2,1.7,1.2,2.9V280.2z M444.8,278.8h4.9c0-0.7-0.2-1.3-0.7-1.6c-0.4-0.4-1-0.6-1.7-0.6c-0.7,0-1.2,0.2-1.8,0.6
		S444.8,278.1,444.8,278.8z"/>
	<path id="XMLID_64_" class="st5" d="M455.2,279.1v4.6h-1.8v-8.5h1.8v1.6c0.3-0.5,0.7-0.9,1.2-1.2c0.5-0.3,1.1-0.4,1.6-0.4
		c1,0,1.7,0.3,2.3,0.9s0.9,1.4,0.9,2.5v5.2h-1.8V279c0-1.6-0.7-2.4-2-2.4c-0.6,0-1.2,0.2-1.6,0.6
		C455.4,277.7,455.2,278.3,455.2,279.1z"/>
	<path id="XMLID_66_" class="st5" d="M465.8,276.6v4.3c0,0.4,0.1,0.7,0.3,1c0.2,0.2,0.5,0.4,0.9,0.4c0.4,0,0.8-0.2,1.1-0.6l0.7,1.3
		c-0.6,0.6-1.3,0.8-2.1,0.8c-0.8,0-1.4-0.3-2-0.8c-0.5-0.5-0.8-1.2-0.8-2.1v-4.3H463v-1.4h1.1v-2.7h1.8v2.7h2.2v1.4H465.8z"/>
	<path id="XMLID_70_" class="st5" d="M477.2,283.7h-1.6v-1.1c-0.7,0.8-1.6,1.3-2.8,1.3c-0.9,0-1.6-0.3-2.2-0.8
		c-0.6-0.5-0.9-1.2-0.9-2c0-0.8,0.3-1.5,0.9-1.9c0.6-0.4,1.5-0.6,2.5-0.6h2.3v-0.3c0-1.1-0.6-1.7-1.9-1.7c-0.8,0-1.6,0.3-2.5,0.9
		l-0.8-1.1c1-0.8,2.2-1.2,3.5-1.2c1,0,1.8,0.3,2.5,0.8s1,1.3,1,2.4V283.7z M475.4,280.5v-0.7h-2c-1.3,0-1.9,0.4-1.9,1.2
		c0,0.4,0.2,0.7,0.5,1c0.3,0.2,0.8,0.3,1.3,0.3c0.6,0,1.1-0.2,1.5-0.5S475.4,281,475.4,280.5z"/>
	<path id="XMLID_73_" class="st5" d="M481.8,276.6v4.3c0,0.4,0.1,0.7,0.3,1c0.2,0.2,0.5,0.4,0.9,0.4s0.8-0.2,1.1-0.6l0.7,1.3
		c-0.6,0.6-1.3,0.8-2.1,0.8s-1.4-0.3-2-0.8c-0.5-0.5-0.8-1.2-0.8-2.1v-4.3H479v-1.4h1.1v-2.7h1.8v2.7h2.2v1.4H481.8z"/>
	<path id="XMLID_76_" class="st5" d="M486.4,273.5c-0.2-0.2-0.3-0.5-0.3-0.8s0.1-0.6,0.3-0.8c0.2-0.2,0.5-0.3,0.8-0.3
		s0.6,0.1,0.8,0.3c0.2,0.2,0.3,0.5,0.3,0.8s-0.1,0.6-0.3,0.8c-0.2,0.2-0.5,0.3-0.8,0.3S486.6,273.7,486.4,273.5z M488.1,283.7h-1.8
		v-8.5h1.8V283.7z"/>
	<path id="XMLID_79_" class="st5" d="M497.8,282.5c-0.9,0.8-1.9,1.3-3.2,1.3c-1.3,0-2.3-0.4-3.2-1.3c-0.9-0.8-1.3-1.9-1.3-3.1
		s0.4-2.3,1.3-3.1c0.9-0.8,1.9-1.3,3.2-1.3c1.3,0,2.3,0.4,3.2,1.3c0.9,0.8,1.3,1.9,1.3,3.1S498.7,281.7,497.8,282.5z M492.7,281.4
		c0.5,0.5,1.1,0.8,1.9,0.8c0.8,0,1.4-0.3,1.9-0.8c0.5-0.5,0.8-1.2,0.8-2s-0.3-1.5-0.8-2c-0.5-0.5-1.1-0.8-1.9-0.8
		c-0.8,0-1.4,0.3-1.9,0.8s-0.8,1.2-0.8,2S492.2,280.9,492.7,281.4z"/>
	<path id="XMLID_82_" class="st5" d="M502.9,279.1v4.6h-1.8v-8.5h1.8v1.6c0.3-0.5,0.7-0.9,1.2-1.2c0.5-0.3,1.1-0.4,1.6-0.4
		c1,0,1.7,0.3,2.3,0.9c0.6,0.6,0.9,1.4,0.9,2.5v5.2h-1.8V279c0-1.6-0.7-2.4-2-2.4c-0.6,0-1.2,0.2-1.6,0.6
		C503.2,277.7,502.9,278.3,502.9,279.1z"/>
</g>
</svg>
